ISO-10303-21;
HEADER;
FILE_DESCRIPTION(('CATIA V5 STEP Exchange'),'2;1');

FILE_NAME('C:\\SD 1\\CATIA\\New folder\\assembly.stp','2023-01-29T17:05:30+00:00',('none'),('none'),'CATIA Version 5 Release 21 GA (IN-10)','CATIA V5 STEP AP203','none');

FILE_SCHEMA(('CONFIG_CONTROL_DESIGN'));

ENDSEC;
/* file written by CATIA V5R21 */
DATA;
#5=PRODUCT('Product1','','',(#2)) ;
#56=PRODUCT('Part1','','',(#2)) ;
#481=PRODUCT('2','','',(#2)) ;
#858=PRODUCT('3','','',(#2)) ;
#1235=PRODUCT('4','','',(#2)) ;
#1=APPLICATION_CONTEXT('configuration controlled 3D design of mechanical parts and assemblies') ;
#17=PRODUCT_DEFINITION('',' ',#6,#3) ;
#19=SECURITY_CLASSIFICATION(' ',' ',#18) ;
#18=SECURITY_CLASSIFICATION_LEVEL('unclassified') ;
#63=CARTESIAN_POINT('Axis2P3D Location',(7.5,-395.,0.)) ;
#68=CARTESIAN_POINT('Line Origine',(7.5,-402.5,4.24912383924E-015)) ;
#72=CARTESIAN_POINT('Vertex',(15.,-402.5,4.24912383924E-015)) ;
#74=CARTESIAN_POINT('Vertex',(0.,-402.5,4.24912383924E-015)) ;
#77=CARTESIAN_POINT('Axis2P3D Location',(15.,-395.,0.)) ;
#81=CARTESIAN_POINT('Vertex',(15.,-387.5,0.)) ;
#84=CARTESIAN_POINT('Line Origine',(7.5,-387.5,-8.49824767848E-015)) ;
#88=CARTESIAN_POINT('Vertex',(0.,-387.5,0.)) ;
#91=CARTESIAN_POINT('Axis2P3D Location',(0.,-395.,0.)) ;
#103=CARTESIAN_POINT('Axis2P3D Location',(15.,-395.,0.)) ;
#108=CARTESIAN_POINT('Axis2P3D Location',(0.,-395.,0.)) ;
#120=CARTESIAN_POINT('Axis2P3D Location',(25.,395.,0.)) ;
#125=CARTESIAN_POINT('Line Origine',(24.5,402.5,0.)) ;
#129=CARTESIAN_POINT('Vertex',(15.,402.5,0.)) ;
#131=CARTESIAN_POINT('Vertex',(34.,402.5,-1.51595858262E-014)) ;
#134=CARTESIAN_POINT('Axis2P3D Location',(15.,395.,0.)) ;
#138=CARTESIAN_POINT('Vertex',(15.,387.5,4.24912383924E-015)) ;
#141=CARTESIAN_POINT('Line Origine',(24.5,387.5,4.24912383924E-015)) ;
#145=CARTESIAN_POINT('Vertex',(34.,387.5,4.24912383924E-015)) ;
#148=CARTESIAN_POINT('Axis2P3D Location',(34.,395.,0.)) ;
#160=CARTESIAN_POINT('Axis2P3D Location',(15.,395.,0.)) ;
#165=CARTESIAN_POINT('Axis2P3D Location',(34.,395.,0.)) ;
#177=CARTESIAN_POINT('Axis2P3D Location',(35.,0.,0.)) ;
#182=CARTESIAN_POINT('Axis2P3D Location',(35.,395.,1.29461787696E-015)) ;
#186=CARTESIAN_POINT('Vertex',(35.,388.5,-3.68254772111E-015)) ;
#188=CARTESIAN_POINT('Vertex',(35.,401.5,-2.97370383009E-016)) ;
#191=CARTESIAN_POINT('Axis2P3D Location',(35.,395.,1.29461787696E-015)) ;
#201=CARTESIAN_POINT('Axis2P3D Location',(34.,395.,2.22044604925E-015)) ;
#206=CARTESIAN_POINT('Axis2P3D Location',(34.,388.5,3.66373598126E-015)) ;
#211=CARTESIAN_POINT('Axis2P3D Location',(34.,401.5,-1.87072579649E-014)) ;
#223=CARTESIAN_POINT('Axis2P3D Location',(34.,395.,-8.881784197E-016)) ;
#235=CARTESIAN_POINT('Axis2P3D Location',(7.5,400.,-2.13162820728E-014)) ;
#240=CARTESIAN_POINT('Axis2P3D Location',(15.,400.,-2.13162820728E-014)) ;
#244=CARTESIAN_POINT('Vertex',(15.,400.,15.)) ;
#246=CARTESIAN_POINT('Vertex',(15.,415.,-4.71945616268E-014)) ;
#249=CARTESIAN_POINT('Line Origine',(7.5,415.,-2.40716463689E-014)) ;
#253=CARTESIAN_POINT('Vertex',(0.,415.,-4.71945616268E-014)) ;
#256=CARTESIAN_POINT('Axis2P3D Location',(0.,400.,-2.13162820728E-014)) ;
#260=CARTESIAN_POINT('Vertex',(0.,400.,15.)) ;
#263=CARTESIAN_POINT('Line Origine',(7.5,400.,15.)) ;
#275=CARTESIAN_POINT('Axis2P3D Location',(7.5,400.,-3.01980662698E-014)) ;
#280=CARTESIAN_POINT('Axis2P3D Location',(15.,400.,-3.01980662698E-014)) ;
#284=CARTESIAN_POINT('Vertex',(15.,400.,-15.)) ;
#287=CARTESIAN_POINT('Line Origine',(7.5,400.,-15.)) ;
#291=CARTESIAN_POINT('Vertex',(0.,400.,-15.)) ;
#294=CARTESIAN_POINT('Axis2P3D Location',(0.,400.,-3.01980662698E-014)) ;
#306=CARTESIAN_POINT('Axis2P3D Location',(0.,-415.,15.)) ;
#311=CARTESIAN_POINT('Line Origine',(7.5,-400.,15.)) ;
#315=CARTESIAN_POINT('Vertex',(0.,-400.,15.)) ;
#317=CARTESIAN_POINT('Vertex',(15.,-400.,15.)) ;
#320=CARTESIAN_POINT('Line Origine',(15.,0.,15.)) ;
#325=CARTESIAN_POINT('Line Origine',(0.,0.,15.)) ;
#337=CARTESIAN_POINT('Axis2P3D Location',(7.5,-400.,-2.13162820728E-014)) ;
#342=CARTESIAN_POINT('Axis2P3D Location',(15.,-400.,-2.13162820728E-014)) ;
#346=CARTESIAN_POINT('Vertex',(15.,-415.,-2.83611567391E-014)) ;
#349=CARTESIAN_POINT('Axis2P3D Location',(0.,-400.,-2.13162820728E-014)) ;
#353=CARTESIAN_POINT('Vertex',(0.,-415.,-2.83611567391E-014)) ;
#356=CARTESIAN_POINT('Line Origine',(7.5,-415.,-4.31978671583E-015)) ;
#368=CARTESIAN_POINT('Axis2P3D Location',(0.,415.,-15.)) ;
#373=CARTESIAN_POINT('Line Origine',(7.5,-400.,-15.)) ;
#377=CARTESIAN_POINT('Vertex',(0.,-400.,-15.)) ;
#379=CARTESIAN_POINT('Vertex',(15.,-400.,-15.)) ;
#382=CARTESIAN_POINT('Line Origine',(0.,0.,-15.)) ;
#387=CARTESIAN_POINT('Line Origine',(15.,0.,-15.)) ;
#399=CARTESIAN_POINT('Axis2P3D Location',(15.,0.,0.)) ;
#404=CARTESIAN_POINT('Axis2P3D Location',(15.,-400.,-3.01980662698E-014)) ;
#426=CARTESIAN_POINT('Axis2P3D Location',(0.,0.,0.)) ;
#431=CARTESIAN_POINT('Axis2P3D Location',(0.,-400.,-3.01980662698E-014)) ;
#449=CARTESIAN_POINT('Axis2P3D Location',(7.5,-400.,-3.01980662698E-014)) ;
#471=CARTESIAN_POINT('NONE',(0.,0.,0.)) ;
#472=CARTESIAN_POINT('NONE',(0.,0.,0.)) ;
#488=CARTESIAN_POINT('Axis2P3D Location',(-10.,415.,545.)) ;
#493=CARTESIAN_POINT('Line Origine',(-10.,407.5,545.)) ;
#497=CARTESIAN_POINT('Vertex',(0.,407.5,545.)) ;
#499=CARTESIAN_POINT('Vertex',(-20.,407.5,545.)) ;
#502=CARTESIAN_POINT('Axis2P3D Location',(0.,415.,545.)) ;
#506=CARTESIAN_POINT('Vertex',(0.,422.5,545.)) ;
#509=CARTESIAN_POINT('Line Origine',(-10.,422.5,545.)) ;
#513=CARTESIAN_POINT('Vertex',(-20.,422.5,545.)) ;
#516=CARTESIAN_POINT('Axis2P3D Location',(-20.,415.,545.)) ;
#528=CARTESIAN_POINT('Axis2P3D Location',(0.,415.,545.)) ;
#533=CARTESIAN_POINT('Axis2P3D Location',(-20.,415.,545.)) ;
#545=CARTESIAN_POINT('Axis2P3D Location',(-20.,0.,0.)) ;
#555=CARTESIAN_POINT('Axis2P3D Location',(7.5,415.,5.)) ;
#560=CARTESIAN_POINT('Line Origine',(7.5,407.5,5.)) ;
#564=CARTESIAN_POINT('Vertex',(15.,407.5,5.)) ;
#566=CARTESIAN_POINT('Vertex',(0.,407.5,5.)) ;
#569=CARTESIAN_POINT('Axis2P3D Location',(15.,415.,5.)) ;
#573=CARTESIAN_POINT('Vertex',(15.,422.5,5.)) ;
#576=CARTESIAN_POINT('Line Origine',(7.5,422.5,5.)) ;
#580=CARTESIAN_POINT('Vertex',(0.,422.5,5.)) ;
#583=CARTESIAN_POINT('Axis2P3D Location',(0.,415.,5.)) ;
#595=CARTESIAN_POINT('Axis2P3D Location',(15.,415.,5.)) ;
#600=CARTESIAN_POINT('Axis2P3D Location',(0.,415.,5.)) ;
#612=CARTESIAN_POINT('Axis2P3D Location',(7.5,415.,550.)) ;
#617=CARTESIAN_POINT('Axis2P3D Location',(15.,415.,550.)) ;
#621=CARTESIAN_POINT('Vertex',(15.,400.,550.)) ;
#623=CARTESIAN_POINT('Vertex',(15.,415.,565.)) ;
#626=CARTESIAN_POINT('Line Origine',(7.5,415.,565.)) ;
#630=CARTESIAN_POINT('Vertex',(0.,415.,565.)) ;
#633=CARTESIAN_POINT('Axis2P3D Location',(0.,415.,550.)) ;
#637=CARTESIAN_POINT('Vertex',(0.,400.,550.)) ;
#640=CARTESIAN_POINT('Line Origine',(7.5,400.,550.)) ;
#652=CARTESIAN_POINT('Axis2P3D Location',(7.5,415.,550.)) ;
#657=CARTESIAN_POINT('Axis2P3D Location',(15.,415.,550.)) ;
#661=CARTESIAN_POINT('Vertex',(15.,430.,550.)) ;
#664=CARTESIAN_POINT('Line Origine',(7.5,430.,550.)) ;
#668=CARTESIAN_POINT('Vertex',(0.,430.,550.)) ;
#671=CARTESIAN_POINT('Axis2P3D Location',(0.,415.,550.)) ;
#683=CARTESIAN_POINT('Axis2P3D Location',(0.,430.,-15.)) ;
#688=CARTESIAN_POINT('Line Origine',(0.,430.,275.)) ;
#692=CARTESIAN_POINT('Vertex',(0.,430.,-1.59872115546E-014)) ;
#695=CARTESIAN_POINT('Line Origine',(15.,430.,275.)) ;
#699=CARTESIAN_POINT('Vertex',(15.,430.,-1.59872115546E-014)) ;
#702=CARTESIAN_POINT('Line Origine',(7.5,430.,-1.7763568394E-014)) ;
#714=CARTESIAN_POINT('Axis2P3D Location',(7.5,415.,-1.7763568394E-014)) ;
#719=CARTESIAN_POINT('Axis2P3D Location',(15.,415.,-1.7763568394E-014)) ;
#723=CARTESIAN_POINT('Vertex',(15.,415.,-15.)) ;
#726=CARTESIAN_POINT('Line Origine',(7.5,415.,-15.)) ;
#730=CARTESIAN_POINT('Vertex',(0.,415.,-15.)) ;
#733=CARTESIAN_POINT('Axis2P3D Location',(0.,415.,-1.7763568394E-014)) ;
#745=CARTESIAN_POINT('Axis2P3D Location',(0.,400.,565.)) ;
#750=CARTESIAN_POINT('Line Origine',(15.,400.,275.)) ;
#754=CARTESIAN_POINT('Vertex',(15.,400.,0.)) ;
#757=CARTESIAN_POINT('Line Origine',(0.,400.,275.)) ;
#761=CARTESIAN_POINT('Vertex',(0.,400.,0.)) ;
#764=CARTESIAN_POINT('Line Origine',(7.5,400.,0.)) ;
#776=CARTESIAN_POINT('Axis2P3D Location',(0.,0.,0.)) ;
#781=CARTESIAN_POINT('Axis2P3D Location',(0.,415.,-1.7763568394E-014)) ;
#803=CARTESIAN_POINT('Axis2P3D Location',(15.,0.,0.)) ;
#808=CARTESIAN_POINT('Axis2P3D Location',(15.,415.,-1.7763568394E-014)) ;
#826=CARTESIAN_POINT('Axis2P3D Location',(7.5,415.,-1.7763568394E-014)) ;
#848=CARTESIAN_POINT('NONE',(0.,0.,0.)) ;
#849=CARTESIAN_POINT('NONE',(15.,149.779825628,-334.838865846)) ;
#865=CARTESIAN_POINT('Axis2P3D Location',(-10.,-222.5,275.)) ;
#870=CARTESIAN_POINT('Line Origine',(-10.,-230.,275.)) ;
#874=CARTESIAN_POINT('Vertex',(0.,-230.,275.)) ;
#876=CARTESIAN_POINT('Vertex',(-20.,-230.,275.)) ;
#879=CARTESIAN_POINT('Axis2P3D Location',(0.,-222.5,275.)) ;
#883=CARTESIAN_POINT('Vertex',(0.,-215.,275.)) ;
#886=CARTESIAN_POINT('Line Origine',(-10.,-215.,275.)) ;
#890=CARTESIAN_POINT('Vertex',(-20.,-215.,275.)) ;
#893=CARTESIAN_POINT('Axis2P3D Location',(-20.,-222.5,275.)) ;
#905=CARTESIAN_POINT('Axis2P3D Location',(0.,-222.5,275.)) ;
#910=CARTESIAN_POINT('Axis2P3D Location',(-20.,-222.5,275.)) ;
#922=CARTESIAN_POINT('Axis2P3D Location',(-20.,0.,0.)) ;
#932=CARTESIAN_POINT('Axis2P3D Location',(7.5,222.5,275.)) ;
#937=CARTESIAN_POINT('Line Origine',(7.5,215.,275.)) ;
#941=CARTESIAN_POINT('Vertex',(15.,215.,275.)) ;
#943=CARTESIAN_POINT('Vertex',(0.,215.,275.)) ;
#946=CARTESIAN_POINT('Axis2P3D Location',(15.,222.5,275.)) ;
#950=CARTESIAN_POINT('Vertex',(15.,230.,275.)) ;
#953=CARTESIAN_POINT('Line Origine',(7.5,230.,275.)) ;
#957=CARTESIAN_POINT('Vertex',(0.,230.,275.)) ;
#960=CARTESIAN_POINT('Axis2P3D Location',(0.,222.5,275.)) ;
#972=CARTESIAN_POINT('Axis2P3D Location',(15.,222.5,275.)) ;
#977=CARTESIAN_POINT('Axis2P3D Location',(0.,222.5,275.)) ;
#989=CARTESIAN_POINT('Axis2P3D Location',(7.5,227.5,275.)) ;
#994=CARTESIAN_POINT('Axis2P3D Location',(15.,227.5,275.)) ;
#998=CARTESIAN_POINT('Vertex',(15.,227.5,290.)) ;
#1000=CARTESIAN_POINT('Vertex',(15.,242.5,275.)) ;
#1003=CARTESIAN_POINT('Line Origine',(7.5,242.5,275.)) ;
#1007=CARTESIAN_POINT('Vertex',(0.,242.5,275.)) ;
#1010=CARTESIAN_POINT('Axis2P3D Location',(0.,227.5,275.)) ;
#1014=CARTESIAN_POINT('Vertex',(0.,227.5,290.)) ;
#1017=CARTESIAN_POINT('Line Origine',(7.5,227.5,290.)) ;
#1029=CARTESIAN_POINT('Axis2P3D Location',(7.5,227.5,275.)) ;
#1034=CARTESIAN_POINT('Axis2P3D Location',(15.,227.5,275.)) ;
#1038=CARTESIAN_POINT('Vertex',(15.,227.5,260.)) ;
#1041=CARTESIAN_POINT('Line Origine',(7.5,227.5,260.)) ;
#1045=CARTESIAN_POINT('Vertex',(0.,227.5,260.)) ;
#1048=CARTESIAN_POINT('Axis2P3D Location',(0.,227.5,275.)) ;
#1060=CARTESIAN_POINT('Axis2P3D Location',(0.,-242.5,290.)) ;
#1065=CARTESIAN_POINT('Line Origine',(7.5,-227.5,290.)) ;
#1069=CARTESIAN_POINT('Vertex',(0.,-227.5,290.)) ;
#1071=CARTESIAN_POINT('Vertex',(15.,-227.5,290.)) ;
#1074=CARTESIAN_POINT('Line Origine',(15.,-2.84217094304E-014,290.)) ;
#1079=CARTESIAN_POINT('Line Origine',(0.,-2.84217094304E-014,290.)) ;
#1091=CARTESIAN_POINT('Axis2P3D Location',(7.5,-227.5,275.)) ;
#1096=CARTESIAN_POINT('Axis2P3D Location',(15.,-227.5,275.)) ;
#1100=CARTESIAN_POINT('Vertex',(15.,-242.5,275.)) ;
#1103=CARTESIAN_POINT('Axis2P3D Location',(0.,-227.5,275.)) ;
#1107=CARTESIAN_POINT('Vertex',(0.,-242.5,275.)) ;
#1110=CARTESIAN_POINT('Line Origine',(7.5,-242.5,275.)) ;
#1122=CARTESIAN_POINT('Axis2P3D Location',(0.,242.5,260.)) ;
#1127=CARTESIAN_POINT('Line Origine',(7.5,-227.5,260.)) ;
#1131=CARTESIAN_POINT('Vertex',(0.,-227.5,260.)) ;
#1133=CARTESIAN_POINT('Vertex',(15.,-227.5,260.)) ;
#1136=CARTESIAN_POINT('Line Origine',(0.,-2.84217094304E-014,260.)) ;
#1141=CARTESIAN_POINT('Line Origine',(15.,-2.84217094304E-014,260.)) ;
#1153=CARTESIAN_POINT('Axis2P3D Location',(0.,0.,0.)) ;
#1158=CARTESIAN_POINT('Axis2P3D Location',(0.,-227.5,275.)) ;
#1180=CARTESIAN_POINT('Axis2P3D Location',(15.,0.,0.)) ;
#1185=CARTESIAN_POINT('Axis2P3D Location',(15.,-227.5,275.)) ;
#1203=CARTESIAN_POINT('Axis2P3D Location',(7.5,-227.5,275.)) ;
#1225=CARTESIAN_POINT('NONE',(0.,0.,0.)) ;
#1226=CARTESIAN_POINT('NONE',(-8.881784197E-016,-151.846647131,-13.5659045251)) ;
#1242=CARTESIAN_POINT('Axis2P3D Location',(-10.,-415.,5.)) ;
#1247=CARTESIAN_POINT('Line Origine',(-10.,-422.5,5.)) ;
#1251=CARTESIAN_POINT('Vertex',(0.,-422.5,5.)) ;
#1253=CARTESIAN_POINT('Vertex',(-20.,-422.5,5.)) ;
#1256=CARTESIAN_POINT('Axis2P3D Location',(0.,-415.,5.)) ;
#1260=CARTESIAN_POINT('Vertex',(0.,-407.5,5.)) ;
#1263=CARTESIAN_POINT('Line Origine',(-10.,-407.5,5.)) ;
#1267=CARTESIAN_POINT('Vertex',(-20.,-407.5,5.)) ;
#1270=CARTESIAN_POINT('Axis2P3D Location',(-20.,-415.,5.)) ;
#1282=CARTESIAN_POINT('Axis2P3D Location',(0.,-415.,5.)) ;
#1287=CARTESIAN_POINT('Axis2P3D Location',(-20.,-415.,5.)) ;
#1299=CARTESIAN_POINT('Axis2P3D Location',(-20.,0.,0.)) ;
#1309=CARTESIAN_POINT('Axis2P3D Location',(7.5,-415.,181.)) ;
#1314=CARTESIAN_POINT('Line Origine',(7.5,-422.5,181.)) ;
#1318=CARTESIAN_POINT('Vertex',(15.,-422.5,181.)) ;
#1320=CARTESIAN_POINT('Vertex',(0.,-422.5,181.)) ;
#1323=CARTESIAN_POINT('Axis2P3D Location',(15.,-415.,181.)) ;
#1327=CARTESIAN_POINT('Vertex',(15.,-407.5,181.)) ;
#1330=CARTESIAN_POINT('Line Origine',(7.5,-407.5,181.)) ;
#1334=CARTESIAN_POINT('Vertex',(0.,-407.5,181.)) ;
#1337=CARTESIAN_POINT('Axis2P3D Location',(0.,-415.,181.)) ;
#1349=CARTESIAN_POINT('Axis2P3D Location',(15.,-415.,181.)) ;
#1354=CARTESIAN_POINT('Axis2P3D Location',(0.,-415.,181.)) ;
#1366=CARTESIAN_POINT('Axis2P3D Location',(7.5,-415.,3.5527136788E-015)) ;
#1371=CARTESIAN_POINT('Axis2P3D Location',(15.,-415.,3.5527136788E-015)) ;
#1375=CARTESIAN_POINT('Vertex',(15.,-400.,7.1054273576E-015)) ;
#1377=CARTESIAN_POINT('Vertex',(15.,-415.,-15.)) ;
#1380=CARTESIAN_POINT('Line Origine',(7.5,-415.,-15.)) ;
#1384=CARTESIAN_POINT('Vertex',(0.,-415.,-15.)) ;
#1387=CARTESIAN_POINT('Axis2P3D Location',(0.,-415.,3.5527136788E-015)) ;
#1391=CARTESIAN_POINT('Vertex',(0.,-400.,7.1054273576E-015)) ;
#1394=CARTESIAN_POINT('Line Origine',(7.5,-400.,-1.34437816782E-014)) ;
#1406=CARTESIAN_POINT('Axis2P3D Location',(7.5,-415.,3.5527136788E-015)) ;
#1411=CARTESIAN_POINT('Axis2P3D Location',(15.,-415.,3.5527136788E-015)) ;
#1415=CARTESIAN_POINT('Vertex',(15.,-430.,0.)) ;
#1418=CARTESIAN_POINT('Line Origine',(7.5,-430.,6.3080779749E-015)) ;
#1422=CARTESIAN_POINT('Vertex',(0.,-430.,0.)) ;
#1425=CARTESIAN_POINT('Axis2P3D Location',(0.,-415.,3.5527136788E-015)) ;
#1437=CARTESIAN_POINT('Axis2P3D Location',(0.,-400.,-15.)) ;
#1442=CARTESIAN_POINT('Line Origine',(15.,-400.,93.)) ;
#1446=CARTESIAN_POINT('Vertex',(15.,-400.,186.)) ;
#1449=CARTESIAN_POINT('Line Origine',(0.,-400.,93.)) ;
#1453=CARTESIAN_POINT('Vertex',(0.,-400.,186.)) ;
#1456=CARTESIAN_POINT('Line Origine',(7.5,-400.,186.)) ;
#1468=CARTESIAN_POINT('Axis2P3D Location',(7.5,-415.,186.)) ;
#1473=CARTESIAN_POINT('Axis2P3D Location',(15.,-415.,186.)) ;
#1477=CARTESIAN_POINT('Vertex',(15.,-415.,201.)) ;
#1480=CARTESIAN_POINT('Axis2P3D Location',(0.,-415.,186.)) ;
#1484=CARTESIAN_POINT('Vertex',(0.,-415.,201.)) ;
#1487=CARTESIAN_POINT('Line Origine',(7.5,-415.,201.)) ;
#1499=CARTESIAN_POINT('Axis2P3D Location',(0.,-430.,201.)) ;
#1504=CARTESIAN_POINT('Line Origine',(0.,-430.,93.)) ;
#1508=CARTESIAN_POINT('Vertex',(0.,-430.,186.)) ;
#1511=CARTESIAN_POINT('Line Origine',(15.,-430.,93.)) ;
#1515=CARTESIAN_POINT('Vertex',(15.,-430.,186.)) ;
#1518=CARTESIAN_POINT('Line Origine',(7.5,-430.,186.)) ;
#1530=CARTESIAN_POINT('Axis2P3D Location',(0.,0.,0.)) ;
#1535=CARTESIAN_POINT('Axis2P3D Location',(0.,-415.,186.)) ;
#1557=CARTESIAN_POINT('Axis2P3D Location',(15.,0.,0.)) ;
#1562=CARTESIAN_POINT('Axis2P3D Location',(15.,-415.,186.)) ;
#1580=CARTESIAN_POINT('Axis2P3D Location',(7.5,-415.,186.)) ;
#1602=CARTESIAN_POINT('NONE',(0.,0.,0.)) ;
#1603=CARTESIAN_POINT('NONE',(-15.,-5.25375167832,142.645932011)) ;
#64=DIRECTION('Axis2P3D Direction',(1.,0.,0.)) ;
#65=DIRECTION('Axis2P3D XDirection',(0.,1.,0.)) ;
#69=DIRECTION('Vector Direction',(1.,0.,0.)) ;
#78=DIRECTION('Axis2P3D Direction',(1.,0.,0.)) ;
#85=DIRECTION('Vector Direction',(1.,0.,0.)) ;
#92=DIRECTION('Axis2P3D Direction',(1.,0.,0.)) ;
#104=DIRECTION('Axis2P3D Direction',(1.,0.,0.)) ;
#109=DIRECTION('Axis2P3D Direction',(1.,0.,0.)) ;
#121=DIRECTION('Axis2P3D Direction',(1.,0.,0.)) ;
#122=DIRECTION('Axis2P3D XDirection',(0.,-1.,5.66549845232E-016)) ;
#126=DIRECTION('Vector Direction',(1.,0.,0.)) ;
#135=DIRECTION('Axis2P3D Direction',(1.,0.,0.)) ;
#142=DIRECTION('Vector Direction',(1.,0.,0.)) ;
#149=DIRECTION('Axis2P3D Direction',(1.,0.,0.)) ;
#161=DIRECTION('Axis2P3D Direction',(1.,0.,0.)) ;
#166=DIRECTION('Axis2P3D Direction',(1.,0.,0.)) ;
#178=DIRECTION('Axis2P3D Direction',(1.,0.,0.)) ;
#179=DIRECTION('Axis2P3D XDirection',(0.,1.,0.)) ;
#183=DIRECTION('Axis2P3D Direction',(1.,0.,0.)) ;
#192=DIRECTION('Axis2P3D Direction',(1.,0.,0.)) ;
#202=DIRECTION('Axis2P3D Direction',(1.,0.,-0.)) ;
#203=DIRECTION('Axis2P3D XDirection',(0.,-1.,2.36847578587E-016)) ;
#207=DIRECTION('Axis2P3D Direction',(0.,2.22044604925E-016,1.)) ;
#212=DIRECTION('Axis2P3D Direction',(0.,-3.21964677141E-015,-1.)) ;
#224=DIRECTION('Axis2P3D Direction',(1.,-0.,0.)) ;
#225=DIRECTION('Axis2P3D XDirection',(0.,1.,3.5527136788E-016)) ;
#236=DIRECTION('Axis2P3D Direction',(1.,0.,-0.)) ;
#237=DIRECTION('Axis2P3D XDirection',(-0.,1.,-1.83690953073E-016)) ;
#241=DIRECTION('Axis2P3D Direction',(1.,0.,-0.)) ;
#250=DIRECTION('Vector Direction',(1.,0.,0.)) ;
#257=DIRECTION('Axis2P3D Direction',(1.,0.,-0.)) ;
#264=DIRECTION('Vector Direction',(1.,0.,0.)) ;
#276=DIRECTION('Axis2P3D Direction',(1.,0.,0.)) ;
#277=DIRECTION('Axis2P3D XDirection',(-0.,-1.83690953073E-016,-1.)) ;
#281=DIRECTION('Axis2P3D Direction',(1.,0.,0.)) ;
#288=DIRECTION('Vector Direction',(1.,0.,0.)) ;
#295=DIRECTION('Axis2P3D Direction',(1.,0.,0.)) ;
#307=DIRECTION('Axis2P3D Direction',(0.,0.,-1.)) ;
#308=DIRECTION('Axis2P3D XDirection',(0.,1.,0.)) ;
#312=DIRECTION('Vector Direction',(1.,0.,0.)) ;
#321=DIRECTION('Vector Direction',(0.,1.,0.)) ;
#326=DIRECTION('Vector Direction',(0.,1.,0.)) ;
#338=DIRECTION('Axis2P3D Direction',(1.,0.,0.)) ;
#339=DIRECTION('Axis2P3D XDirection',(-0.,1.83690953073E-016,1.)) ;
#343=DIRECTION('Axis2P3D Direction',(1.,0.,0.)) ;
#350=DIRECTION('Axis2P3D Direction',(1.,0.,0.)) ;
#357=DIRECTION('Vector Direction',(1.,0.,0.)) ;
#369=DIRECTION('Axis2P3D Direction',(-0.,0.,1.)) ;
#370=DIRECTION('Axis2P3D XDirection',(0.,-1.,0.)) ;
#374=DIRECTION('Vector Direction',(1.,0.,0.)) ;
#383=DIRECTION('Vector Direction',(0.,-1.,0.)) ;
#388=DIRECTION('Vector Direction',(0.,-1.,0.)) ;
#400=DIRECTION('Axis2P3D Direction',(1.,0.,0.)) ;
#401=DIRECTION('Axis2P3D XDirection',(0.,1.,0.)) ;
#405=DIRECTION('Axis2P3D Direction',(1.,0.,0.)) ;
#427=DIRECTION('Axis2P3D Direction',(1.,0.,0.)) ;
#428=DIRECTION('Axis2P3D XDirection',(0.,1.,0.)) ;
#432=DIRECTION('Axis2P3D Direction',(1.,0.,0.)) ;
#450=DIRECTION('Axis2P3D Direction',(1.,0.,0.)) ;
#451=DIRECTION('Axis2P3D XDirection',(0.,-1.,1.83690953073E-016)) ;
#473=DIRECTION('NONE',(1.,0.,0.)) ;
#474=DIRECTION('NONE',(0.,0.,1.)) ;
#475=DIRECTION('NONE',(1.,0.,0.)) ;
#476=DIRECTION('NONE',(0.,0.,1.)) ;
#489=DIRECTION('Axis2P3D Direction',(-1.,-0.,0.)) ;
#490=DIRECTION('Axis2P3D XDirection',(0.,1.,5.66549845232E-016)) ;
#494=DIRECTION('Vector Direction',(-1.,0.,0.)) ;
#503=DIRECTION('Axis2P3D Direction',(-1.,-0.,0.)) ;
#510=DIRECTION('Vector Direction',(-1.,0.,0.)) ;
#517=DIRECTION('Axis2P3D Direction',(-1.,-0.,0.)) ;
#529=DIRECTION('Axis2P3D Direction',(-1.,-0.,0.)) ;
#534=DIRECTION('Axis2P3D Direction',(-1.,-0.,0.)) ;
#546=DIRECTION('Axis2P3D Direction',(-1.,-0.,0.)) ;
#547=DIRECTION('Axis2P3D XDirection',(0.,-1.,-0.)) ;
#556=DIRECTION('Axis2P3D Direction',(1.,0.,0.)) ;
#557=DIRECTION('Axis2P3D XDirection',(0.,1.,0.)) ;
#561=DIRECTION('Vector Direction',(1.,0.,0.)) ;
#570=DIRECTION('Axis2P3D Direction',(1.,0.,0.)) ;
#577=DIRECTION('Vector Direction',(1.,0.,0.)) ;
#584=DIRECTION('Axis2P3D Direction',(1.,0.,0.)) ;
#596=DIRECTION('Axis2P3D Direction',(1.,0.,0.)) ;
#601=DIRECTION('Axis2P3D Direction',(1.,0.,0.)) ;
#613=DIRECTION('Axis2P3D Direction',(1.,0.,0.)) ;
#614=DIRECTION('Axis2P3D XDirection',(-0.,1.83690953073E-016,1.)) ;
#618=DIRECTION('Axis2P3D Direction',(1.,0.,0.)) ;
#627=DIRECTION('Vector Direction',(1.,0.,0.)) ;
#634=DIRECTION('Axis2P3D Direction',(1.,0.,0.)) ;
#641=DIRECTION('Vector Direction',(1.,0.,0.)) ;
#653=DIRECTION('Axis2P3D Direction',(1.,0.,-0.)) ;
#654=DIRECTION('Axis2P3D XDirection',(-0.,1.,-1.83690953073E-016)) ;
#658=DIRECTION('Axis2P3D Direction',(1.,0.,-0.)) ;
#665=DIRECTION('Vector Direction',(1.,0.,0.)) ;
#672=DIRECTION('Axis2P3D Direction',(1.,0.,-0.)) ;
#684=DIRECTION('Axis2P3D Direction',(0.,1.,0.)) ;
#685=DIRECTION('Axis2P3D XDirection',(0.,0.,1.)) ;
#689=DIRECTION('Vector Direction',(0.,0.,1.)) ;
#696=DIRECTION('Vector Direction',(0.,0.,1.)) ;
#703=DIRECTION('Vector Direction',(1.,0.,0.)) ;
#715=DIRECTION('Axis2P3D Direction',(1.,0.,0.)) ;
#716=DIRECTION('Axis2P3D XDirection',(-0.,-1.83690953073E-016,-1.)) ;
#720=DIRECTION('Axis2P3D Direction',(1.,0.,0.)) ;
#727=DIRECTION('Vector Direction',(1.,0.,0.)) ;
#734=DIRECTION('Axis2P3D Direction',(1.,0.,0.)) ;
#746=DIRECTION('Axis2P3D Direction',(0.,-1.,0.)) ;
#747=DIRECTION('Axis2P3D XDirection',(0.,0.,-1.)) ;
#751=DIRECTION('Vector Direction',(0.,0.,-1.)) ;
#758=DIRECTION('Vector Direction',(0.,0.,-1.)) ;
#765=DIRECTION('Vector Direction',(1.,0.,0.)) ;
#777=DIRECTION('Axis2P3D Direction',(1.,0.,0.)) ;
#778=DIRECTION('Axis2P3D XDirection',(0.,1.,0.)) ;
#782=DIRECTION('Axis2P3D Direction',(1.,0.,0.)) ;
#804=DIRECTION('Axis2P3D Direction',(1.,0.,0.)) ;
#805=DIRECTION('Axis2P3D XDirection',(0.,1.,0.)) ;
#809=DIRECTION('Axis2P3D Direction',(1.,0.,0.)) ;
#827=DIRECTION('Axis2P3D Direction',(1.,0.,0.)) ;
#828=DIRECTION('Axis2P3D XDirection',(0.,-1.,1.83690953073E-016)) ;
#850=DIRECTION('NONE',(1.,0.,0.)) ;
#851=DIRECTION('NONE',(0.,0.,1.)) ;
#852=DIRECTION('NONE',(1.,0.,0.)) ;
#853=DIRECTION('NONE',(0.,-0.799605390155,0.60052578632)) ;
#866=DIRECTION('Axis2P3D Direction',(-1.,-0.,0.)) ;
#867=DIRECTION('Axis2P3D XDirection',(0.,1.,5.66549845232E-016)) ;
#871=DIRECTION('Vector Direction',(-1.,0.,0.)) ;
#880=DIRECTION('Axis2P3D Direction',(-1.,-0.,0.)) ;
#887=DIRECTION('Vector Direction',(-1.,0.,0.)) ;
#894=DIRECTION('Axis2P3D Direction',(-1.,-0.,0.)) ;
#906=DIRECTION('Axis2P3D Direction',(-1.,-0.,0.)) ;
#911=DIRECTION('Axis2P3D Direction',(-1.,-0.,0.)) ;
#923=DIRECTION('Axis2P3D Direction',(-1.,-0.,0.)) ;
#924=DIRECTION('Axis2P3D XDirection',(0.,-1.,-0.)) ;
#933=DIRECTION('Axis2P3D Direction',(1.,0.,0.)) ;
#934=DIRECTION('Axis2P3D XDirection',(0.,1.,0.)) ;
#938=DIRECTION('Vector Direction',(1.,0.,0.)) ;
#947=DIRECTION('Axis2P3D Direction',(1.,0.,0.)) ;
#954=DIRECTION('Vector Direction',(1.,0.,0.)) ;
#961=DIRECTION('Axis2P3D Direction',(1.,0.,0.)) ;
#973=DIRECTION('Axis2P3D Direction',(1.,0.,0.)) ;
#978=DIRECTION('Axis2P3D Direction',(1.,0.,0.)) ;
#990=DIRECTION('Axis2P3D Direction',(1.,0.,-0.)) ;
#991=DIRECTION('Axis2P3D XDirection',(-0.,1.,-1.83690953073E-016)) ;
#995=DIRECTION('Axis2P3D Direction',(1.,0.,-0.)) ;
#1004=DIRECTION('Vector Direction',(1.,0.,0.)) ;
#1011=DIRECTION('Axis2P3D Direction',(1.,0.,-0.)) ;
#1018=DIRECTION('Vector Direction',(1.,0.,0.)) ;
#1030=DIRECTION('Axis2P3D Direction',(1.,0.,0.)) ;
#1031=DIRECTION('Axis2P3D XDirection',(-0.,-1.83690953073E-016,-1.)) ;
#1035=DIRECTION('Axis2P3D Direction',(1.,0.,0.)) ;
#1042=DIRECTION('Vector Direction',(1.,0.,0.)) ;
#1049=DIRECTION('Axis2P3D Direction',(1.,0.,0.)) ;
#1061=DIRECTION('Axis2P3D Direction',(0.,0.,-1.)) ;
#1062=DIRECTION('Axis2P3D XDirection',(0.,1.,0.)) ;
#1066=DIRECTION('Vector Direction',(1.,0.,0.)) ;
#1075=DIRECTION('Vector Direction',(0.,1.,0.)) ;
#1080=DIRECTION('Vector Direction',(0.,1.,0.)) ;
#1092=DIRECTION('Axis2P3D Direction',(1.,0.,0.)) ;
#1093=DIRECTION('Axis2P3D XDirection',(-0.,1.83690953073E-016,1.)) ;
#1097=DIRECTION('Axis2P3D Direction',(1.,0.,0.)) ;
#1104=DIRECTION('Axis2P3D Direction',(1.,0.,0.)) ;
#1111=DIRECTION('Vector Direction',(1.,0.,0.)) ;
#1123=DIRECTION('Axis2P3D Direction',(-0.,0.,1.)) ;
#1124=DIRECTION('Axis2P3D XDirection',(0.,-1.,0.)) ;
#1128=DIRECTION('Vector Direction',(1.,0.,0.)) ;
#1137=DIRECTION('Vector Direction',(0.,-1.,0.)) ;
#1142=DIRECTION('Vector Direction',(0.,-1.,0.)) ;
#1154=DIRECTION('Axis2P3D Direction',(1.,0.,0.)) ;
#1155=DIRECTION('Axis2P3D XDirection',(0.,1.,0.)) ;
#1159=DIRECTION('Axis2P3D Direction',(1.,0.,0.)) ;
#1181=DIRECTION('Axis2P3D Direction',(1.,0.,0.)) ;
#1182=DIRECTION('Axis2P3D XDirection',(0.,1.,0.)) ;
#1186=DIRECTION('Axis2P3D Direction',(1.,0.,0.)) ;
#1204=DIRECTION('Axis2P3D Direction',(1.,0.,0.)) ;
#1205=DIRECTION('Axis2P3D XDirection',(0.,-1.,1.83690953073E-016)) ;
#1227=DIRECTION('NONE',(1.,0.,0.)) ;
#1228=DIRECTION('NONE',(0.,0.,1.)) ;
#1229=DIRECTION('NONE',(1.,0.,0.)) ;
#1230=DIRECTION('NONE',(0.,-0.354992658698,0.934869088306)) ;
#1243=DIRECTION('Axis2P3D Direction',(-1.,-0.,0.)) ;
#1244=DIRECTION('Axis2P3D XDirection',(0.,1.,5.66549845232E-016)) ;
#1248=DIRECTION('Vector Direction',(-1.,0.,0.)) ;
#1257=DIRECTION('Axis2P3D Direction',(-1.,-0.,0.)) ;
#1264=DIRECTION('Vector Direction',(-1.,0.,0.)) ;
#1271=DIRECTION('Axis2P3D Direction',(-1.,-0.,0.)) ;
#1283=DIRECTION('Axis2P3D Direction',(-1.,-0.,0.)) ;
#1288=DIRECTION('Axis2P3D Direction',(-1.,-0.,0.)) ;
#1300=DIRECTION('Axis2P3D Direction',(-1.,-0.,0.)) ;
#1301=DIRECTION('Axis2P3D XDirection',(0.,-1.,-0.)) ;
#1310=DIRECTION('Axis2P3D Direction',(1.,0.,0.)) ;
#1311=DIRECTION('Axis2P3D XDirection',(0.,1.,0.)) ;
#1315=DIRECTION('Vector Direction',(1.,0.,0.)) ;
#1324=DIRECTION('Axis2P3D Direction',(1.,0.,0.)) ;
#1331=DIRECTION('Vector Direction',(1.,0.,0.)) ;
#1338=DIRECTION('Axis2P3D Direction',(1.,0.,0.)) ;
#1350=DIRECTION('Axis2P3D Direction',(1.,0.,0.)) ;
#1355=DIRECTION('Axis2P3D Direction',(1.,0.,0.)) ;
#1367=DIRECTION('Axis2P3D Direction',(1.,0.,0.)) ;
#1368=DIRECTION('Axis2P3D XDirection',(-0.,-1.83690953073E-016,-1.)) ;
#1372=DIRECTION('Axis2P3D Direction',(1.,0.,0.)) ;
#1381=DIRECTION('Vector Direction',(1.,0.,0.)) ;
#1388=DIRECTION('Axis2P3D Direction',(1.,0.,0.)) ;
#1395=DIRECTION('Vector Direction',(1.,0.,0.)) ;
#1407=DIRECTION('Axis2P3D Direction',(1.,0.,0.)) ;
#1408=DIRECTION('Axis2P3D XDirection',(0.,-1.,1.83690953073E-016)) ;
#1412=DIRECTION('Axis2P3D Direction',(1.,0.,0.)) ;
#1419=DIRECTION('Vector Direction',(1.,0.,0.)) ;
#1426=DIRECTION('Axis2P3D Direction',(1.,0.,0.)) ;
#1438=DIRECTION('Axis2P3D Direction',(0.,1.,0.)) ;
#1439=DIRECTION('Axis2P3D XDirection',(0.,0.,1.)) ;
#1443=DIRECTION('Vector Direction',(0.,0.,1.)) ;
#1450=DIRECTION('Vector Direction',(0.,0.,1.)) ;
#1457=DIRECTION('Vector Direction',(1.,0.,0.)) ;
#1469=DIRECTION('Axis2P3D Direction',(1.,0.,-0.)) ;
#1470=DIRECTION('Axis2P3D XDirection',(-0.,1.,-1.83690953073E-016)) ;
#1474=DIRECTION('Axis2P3D Direction',(1.,0.,-0.)) ;
#1481=DIRECTION('Axis2P3D Direction',(1.,0.,-0.)) ;
#1488=DIRECTION('Vector Direction',(1.,0.,0.)) ;
#1500=DIRECTION('Axis2P3D Direction',(0.,-1.,0.)) ;
#1501=DIRECTION('Axis2P3D XDirection',(0.,0.,-1.)) ;
#1505=DIRECTION('Vector Direction',(0.,0.,-1.)) ;
#1512=DIRECTION('Vector Direction',(0.,0.,-1.)) ;
#1519=DIRECTION('Vector Direction',(1.,0.,0.)) ;
#1531=DIRECTION('Axis2P3D Direction',(1.,0.,0.)) ;
#1532=DIRECTION('Axis2P3D XDirection',(0.,1.,0.)) ;
#1536=DIRECTION('Axis2P3D Direction',(1.,0.,0.)) ;
#1558=DIRECTION('Axis2P3D Direction',(1.,0.,0.)) ;
#1559=DIRECTION('Axis2P3D XDirection',(0.,1.,0.)) ;
#1563=DIRECTION('Axis2P3D Direction',(1.,0.,0.)) ;
#1581=DIRECTION('Axis2P3D Direction',(1.,0.,0.)) ;
#1582=DIRECTION('Axis2P3D XDirection',(-0.,1.83690953073E-016,1.)) ;
#1604=DIRECTION('NONE',(1.,0.,0.)) ;
#1605=DIRECTION('NONE',(0.,0.,1.)) ;
#1606=DIRECTION('NONE',(1.,0.,0.)) ;
#1607=DIRECTION('NONE',(0.,-0.354988638758,0.934870614766)) ;
#66=AXIS2_PLACEMENT_3D('Cylinder Axis2P3D',#63,#64,#65) ;
#79=AXIS2_PLACEMENT_3D('Circle Axis2P3D',#77,#78,$) ;
#93=AXIS2_PLACEMENT_3D('Circle Axis2P3D',#91,#92,$) ;
#105=AXIS2_PLACEMENT_3D('Circle Axis2P3D',#103,#104,$) ;
#110=AXIS2_PLACEMENT_3D('Circle Axis2P3D',#108,#109,$) ;
#123=AXIS2_PLACEMENT_3D('Cylinder Axis2P3D',#120,#121,#122) ;
#136=AXIS2_PLACEMENT_3D('Circle Axis2P3D',#134,#135,$) ;
#150=AXIS2_PLACEMENT_3D('Circle Axis2P3D',#148,#149,$) ;
#162=AXIS2_PLACEMENT_3D('Circle Axis2P3D',#160,#161,$) ;
#167=AXIS2_PLACEMENT_3D('Circle Axis2P3D',#165,#166,$) ;
#180=AXIS2_PLACEMENT_3D('Plane Axis2P3D',#177,#178,#179) ;
#184=AXIS2_PLACEMENT_3D('Circle Axis2P3D',#182,#183,$) ;
#193=AXIS2_PLACEMENT_3D('Circle Axis2P3D',#191,#192,$) ;
#204=AXIS2_PLACEMENT_3D('Torus Axis2P3D',#201,#202,#203) ;
#208=AXIS2_PLACEMENT_3D('Circle Axis2P3D',#206,#207,$) ;
#213=AXIS2_PLACEMENT_3D('Circle Axis2P3D',#211,#212,$) ;
#226=AXIS2_PLACEMENT_3D('Torus Axis2P3D',#223,#224,#225) ;
#238=AXIS2_PLACEMENT_3D('Cylinder Axis2P3D',#235,#236,#237) ;
#242=AXIS2_PLACEMENT_3D('Circle Axis2P3D',#240,#241,$) ;
#258=AXIS2_PLACEMENT_3D('Circle Axis2P3D',#256,#257,$) ;
#278=AXIS2_PLACEMENT_3D('Cylinder Axis2P3D',#275,#276,#277) ;
#282=AXIS2_PLACEMENT_3D('Circle Axis2P3D',#280,#281,$) ;
#296=AXIS2_PLACEMENT_3D('Circle Axis2P3D',#294,#295,$) ;
#309=AXIS2_PLACEMENT_3D('Plane Axis2P3D',#306,#307,#308) ;
#340=AXIS2_PLACEMENT_3D('Cylinder Axis2P3D',#337,#338,#339) ;
#344=AXIS2_PLACEMENT_3D('Circle Axis2P3D',#342,#343,$) ;
#351=AXIS2_PLACEMENT_3D('Circle Axis2P3D',#349,#350,$) ;
#371=AXIS2_PLACEMENT_3D('Plane Axis2P3D',#368,#369,#370) ;
#402=AXIS2_PLACEMENT_3D('Plane Axis2P3D',#399,#400,#401) ;
#406=AXIS2_PLACEMENT_3D('Circle Axis2P3D',#404,#405,$) ;
#429=AXIS2_PLACEMENT_3D('Plane Axis2P3D',#426,#427,#428) ;
#433=AXIS2_PLACEMENT_3D('Circle Axis2P3D',#431,#432,$) ;
#452=AXIS2_PLACEMENT_3D('Cylinder Axis2P3D',#449,#450,#451) ;
#469=AXIS2_PLACEMENT_3D(' ',#472,#476,#475) ;
#470=AXIS2_PLACEMENT_3D(' ',#471,#474,#473) ;
#491=AXIS2_PLACEMENT_3D('Cylinder Axis2P3D',#488,#489,#490) ;
#504=AXIS2_PLACEMENT_3D('Circle Axis2P3D',#502,#503,$) ;
#518=AXIS2_PLACEMENT_3D('Circle Axis2P3D',#516,#517,$) ;
#530=AXIS2_PLACEMENT_3D('Circle Axis2P3D',#528,#529,$) ;
#535=AXIS2_PLACEMENT_3D('Circle Axis2P3D',#533,#534,$) ;
#548=AXIS2_PLACEMENT_3D('Plane Axis2P3D',#545,#546,#547) ;
#558=AXIS2_PLACEMENT_3D('Cylinder Axis2P3D',#555,#556,#557) ;
#571=AXIS2_PLACEMENT_3D('Circle Axis2P3D',#569,#570,$) ;
#585=AXIS2_PLACEMENT_3D('Circle Axis2P3D',#583,#584,$) ;
#597=AXIS2_PLACEMENT_3D('Circle Axis2P3D',#595,#596,$) ;
#602=AXIS2_PLACEMENT_3D('Circle Axis2P3D',#600,#601,$) ;
#615=AXIS2_PLACEMENT_3D('Cylinder Axis2P3D',#612,#613,#614) ;
#619=AXIS2_PLACEMENT_3D('Circle Axis2P3D',#617,#618,$) ;
#635=AXIS2_PLACEMENT_3D('Circle Axis2P3D',#633,#634,$) ;
#655=AXIS2_PLACEMENT_3D('Cylinder Axis2P3D',#652,#653,#654) ;
#659=AXIS2_PLACEMENT_3D('Circle Axis2P3D',#657,#658,$) ;
#673=AXIS2_PLACEMENT_3D('Circle Axis2P3D',#671,#672,$) ;
#686=AXIS2_PLACEMENT_3D('Plane Axis2P3D',#683,#684,#685) ;
#717=AXIS2_PLACEMENT_3D('Cylinder Axis2P3D',#714,#715,#716) ;
#721=AXIS2_PLACEMENT_3D('Circle Axis2P3D',#719,#720,$) ;
#735=AXIS2_PLACEMENT_3D('Circle Axis2P3D',#733,#734,$) ;
#748=AXIS2_PLACEMENT_3D('Plane Axis2P3D',#745,#746,#747) ;
#779=AXIS2_PLACEMENT_3D('Plane Axis2P3D',#776,#777,#778) ;
#783=AXIS2_PLACEMENT_3D('Circle Axis2P3D',#781,#782,$) ;
#806=AXIS2_PLACEMENT_3D('Plane Axis2P3D',#803,#804,#805) ;
#810=AXIS2_PLACEMENT_3D('Circle Axis2P3D',#808,#809,$) ;
#829=AXIS2_PLACEMENT_3D('Cylinder Axis2P3D',#826,#827,#828) ;
#846=AXIS2_PLACEMENT_3D(' ',#849,#853,#852) ;
#847=AXIS2_PLACEMENT_3D(' ',#848,#851,#850) ;
#868=AXIS2_PLACEMENT_3D('Cylinder Axis2P3D',#865,#866,#867) ;
#881=AXIS2_PLACEMENT_3D('Circle Axis2P3D',#879,#880,$) ;
#895=AXIS2_PLACEMENT_3D('Circle Axis2P3D',#893,#894,$) ;
#907=AXIS2_PLACEMENT_3D('Circle Axis2P3D',#905,#906,$) ;
#912=AXIS2_PLACEMENT_3D('Circle Axis2P3D',#910,#911,$) ;
#925=AXIS2_PLACEMENT_3D('Plane Axis2P3D',#922,#923,#924) ;
#935=AXIS2_PLACEMENT_3D('Cylinder Axis2P3D',#932,#933,#934) ;
#948=AXIS2_PLACEMENT_3D('Circle Axis2P3D',#946,#947,$) ;
#962=AXIS2_PLACEMENT_3D('Circle Axis2P3D',#960,#961,$) ;
#974=AXIS2_PLACEMENT_3D('Circle Axis2P3D',#972,#973,$) ;
#979=AXIS2_PLACEMENT_3D('Circle Axis2P3D',#977,#978,$) ;
#992=AXIS2_PLACEMENT_3D('Cylinder Axis2P3D',#989,#990,#991) ;
#996=AXIS2_PLACEMENT_3D('Circle Axis2P3D',#994,#995,$) ;
#1012=AXIS2_PLACEMENT_3D('Circle Axis2P3D',#1010,#1011,$) ;
#1032=AXIS2_PLACEMENT_3D('Cylinder Axis2P3D',#1029,#1030,#1031) ;
#1036=AXIS2_PLACEMENT_3D('Circle Axis2P3D',#1034,#1035,$) ;
#1050=AXIS2_PLACEMENT_3D('Circle Axis2P3D',#1048,#1049,$) ;
#1063=AXIS2_PLACEMENT_3D('Plane Axis2P3D',#1060,#1061,#1062) ;
#1094=AXIS2_PLACEMENT_3D('Cylinder Axis2P3D',#1091,#1092,#1093) ;
#1098=AXIS2_PLACEMENT_3D('Circle Axis2P3D',#1096,#1097,$) ;
#1105=AXIS2_PLACEMENT_3D('Circle Axis2P3D',#1103,#1104,$) ;
#1125=AXIS2_PLACEMENT_3D('Plane Axis2P3D',#1122,#1123,#1124) ;
#1156=AXIS2_PLACEMENT_3D('Plane Axis2P3D',#1153,#1154,#1155) ;
#1160=AXIS2_PLACEMENT_3D('Circle Axis2P3D',#1158,#1159,$) ;
#1183=AXIS2_PLACEMENT_3D('Plane Axis2P3D',#1180,#1181,#1182) ;
#1187=AXIS2_PLACEMENT_3D('Circle Axis2P3D',#1185,#1186,$) ;
#1206=AXIS2_PLACEMENT_3D('Cylinder Axis2P3D',#1203,#1204,#1205) ;
#1223=AXIS2_PLACEMENT_3D(' ',#1226,#1230,#1229) ;
#1224=AXIS2_PLACEMENT_3D(' ',#1225,#1228,#1227) ;
#1245=AXIS2_PLACEMENT_3D('Cylinder Axis2P3D',#1242,#1243,#1244) ;
#1258=AXIS2_PLACEMENT_3D('Circle Axis2P3D',#1256,#1257,$) ;
#1272=AXIS2_PLACEMENT_3D('Circle Axis2P3D',#1270,#1271,$) ;
#1284=AXIS2_PLACEMENT_3D('Circle Axis2P3D',#1282,#1283,$) ;
#1289=AXIS2_PLACEMENT_3D('Circle Axis2P3D',#1287,#1288,$) ;
#1302=AXIS2_PLACEMENT_3D('Plane Axis2P3D',#1299,#1300,#1301) ;
#1312=AXIS2_PLACEMENT_3D('Cylinder Axis2P3D',#1309,#1310,#1311) ;
#1325=AXIS2_PLACEMENT_3D('Circle Axis2P3D',#1323,#1324,$) ;
#1339=AXIS2_PLACEMENT_3D('Circle Axis2P3D',#1337,#1338,$) ;
#1351=AXIS2_PLACEMENT_3D('Circle Axis2P3D',#1349,#1350,$) ;
#1356=AXIS2_PLACEMENT_3D('Circle Axis2P3D',#1354,#1355,$) ;
#1369=AXIS2_PLACEMENT_3D('Cylinder Axis2P3D',#1366,#1367,#1368) ;
#1373=AXIS2_PLACEMENT_3D('Circle Axis2P3D',#1371,#1372,$) ;
#1389=AXIS2_PLACEMENT_3D('Circle Axis2P3D',#1387,#1388,$) ;
#1409=AXIS2_PLACEMENT_3D('Cylinder Axis2P3D',#1406,#1407,#1408) ;
#1413=AXIS2_PLACEMENT_3D('Circle Axis2P3D',#1411,#1412,$) ;
#1427=AXIS2_PLACEMENT_3D('Circle Axis2P3D',#1425,#1426,$) ;
#1440=AXIS2_PLACEMENT_3D('Plane Axis2P3D',#1437,#1438,#1439) ;
#1471=AXIS2_PLACEMENT_3D('Cylinder Axis2P3D',#1468,#1469,#1470) ;
#1475=AXIS2_PLACEMENT_3D('Circle Axis2P3D',#1473,#1474,$) ;
#1482=AXIS2_PLACEMENT_3D('Circle Axis2P3D',#1480,#1481,$) ;
#1502=AXIS2_PLACEMENT_3D('Plane Axis2P3D',#1499,#1500,#1501) ;
#1533=AXIS2_PLACEMENT_3D('Plane Axis2P3D',#1530,#1531,#1532) ;
#1537=AXIS2_PLACEMENT_3D('Circle Axis2P3D',#1535,#1536,$) ;
#1560=AXIS2_PLACEMENT_3D('Plane Axis2P3D',#1557,#1558,#1559) ;
#1564=AXIS2_PLACEMENT_3D('Circle Axis2P3D',#1562,#1563,$) ;
#1583=AXIS2_PLACEMENT_3D('Cylinder Axis2P3D',#1580,#1581,#1582) ;
#1600=AXIS2_PLACEMENT_3D(' ',#1603,#1607,#1606) ;
#1601=AXIS2_PLACEMENT_3D(' ',#1602,#1605,#1604) ;
#45=PRODUCT_DEFINITION_SHAPE(' ',' ',#17) ;
#61=PRODUCT_DEFINITION_SHAPE(' ',' ',#58) ;
#465=PRODUCT_DEFINITION_SHAPE(' ',' ',#464) ;
#486=PRODUCT_DEFINITION_SHAPE(' ',' ',#483) ;
#842=PRODUCT_DEFINITION_SHAPE(' ',' ',#841) ;
#863=PRODUCT_DEFINITION_SHAPE(' ',' ',#860) ;
#1219=PRODUCT_DEFINITION_SHAPE(' ',' ',#1218) ;
#1240=PRODUCT_DEFINITION_SHAPE(' ',' ',#1237) ;
#1596=PRODUCT_DEFINITION_SHAPE(' ',' ',#1595) ;
#34=APPROVAL_PERSON_ORGANIZATION(#28,#24,#22) ;
#28=PERSON_AND_ORGANIZATION(#25,#26) ;
#25=PERSON(' ',' ',' ',$,$,$) ;
#26=ORGANIZATION(' ',' ',' ') ;
#24=APPROVAL(#23,' ') ;
#23=APPROVAL_STATUS('not_yet_approved') ;
#22=APPROVAL_ROLE('APPROVER') ;
#13=DATE_AND_TIME(#11,#12) ;
#12=LOCAL_TIME(22,35,30.,#10) ;
#10=COORDINATED_UNIVERSAL_TIME_OFFSET(0,0,.AHEAD.) ;
#97=ORIENTED_EDGE('',*,*,#76,.F.) ;
#98=ORIENTED_EDGE('',*,*,#83,.T.) ;
#99=ORIENTED_EDGE('',*,*,#90,.T.) ;
#100=ORIENTED_EDGE('',*,*,#95,.F.) ;
#114=ORIENTED_EDGE('',*,*,#90,.F.) ;
#115=ORIENTED_EDGE('',*,*,#107,.T.) ;
#116=ORIENTED_EDGE('',*,*,#76,.T.) ;
#117=ORIENTED_EDGE('',*,*,#112,.F.) ;
#154=ORIENTED_EDGE('',*,*,#133,.F.) ;
#155=ORIENTED_EDGE('',*,*,#140,.T.) ;
#156=ORIENTED_EDGE('',*,*,#147,.T.) ;
#157=ORIENTED_EDGE('',*,*,#152,.F.) ;
#171=ORIENTED_EDGE('',*,*,#147,.F.) ;
#172=ORIENTED_EDGE('',*,*,#164,.T.) ;
#173=ORIENTED_EDGE('',*,*,#133,.T.) ;
#174=ORIENTED_EDGE('',*,*,#169,.F.) ;
#197=ORIENTED_EDGE('',*,*,#190,.T.) ;
#198=ORIENTED_EDGE('',*,*,#195,.T.) ;
#217=ORIENTED_EDGE('',*,*,#210,.T.) ;
#218=ORIENTED_EDGE('',*,*,#169,.T.) ;
#219=ORIENTED_EDGE('',*,*,#215,.F.) ;
#220=ORIENTED_EDGE('',*,*,#190,.F.) ;
#229=ORIENTED_EDGE('',*,*,#215,.T.) ;
#230=ORIENTED_EDGE('',*,*,#152,.T.) ;
#231=ORIENTED_EDGE('',*,*,#210,.F.) ;
#232=ORIENTED_EDGE('',*,*,#195,.F.) ;
#269=ORIENTED_EDGE('',*,*,#248,.T.) ;
#270=ORIENTED_EDGE('',*,*,#255,.F.) ;
#271=ORIENTED_EDGE('',*,*,#262,.T.) ;
#272=ORIENTED_EDGE('',*,*,#267,.T.) ;
#300=ORIENTED_EDGE('',*,*,#286,.T.) ;
#301=ORIENTED_EDGE('',*,*,#293,.F.) ;
#302=ORIENTED_EDGE('',*,*,#298,.T.) ;
#303=ORIENTED_EDGE('',*,*,#255,.T.) ;
#331=ORIENTED_EDGE('',*,*,#319,.T.) ;
#332=ORIENTED_EDGE('',*,*,#324,.F.) ;
#333=ORIENTED_EDGE('',*,*,#267,.F.) ;
#334=ORIENTED_EDGE('',*,*,#329,.T.) ;
#362=ORIENTED_EDGE('',*,*,#348,.T.) ;
#363=ORIENTED_EDGE('',*,*,#319,.F.) ;
#364=ORIENTED_EDGE('',*,*,#355,.T.) ;
#365=ORIENTED_EDGE('',*,*,#360,.T.) ;
#393=ORIENTED_EDGE('',*,*,#381,.F.) ;
#394=ORIENTED_EDGE('',*,*,#386,.T.) ;
#395=ORIENTED_EDGE('',*,*,#293,.T.) ;
#396=ORIENTED_EDGE('',*,*,#391,.F.) ;
#410=ORIENTED_EDGE('',*,*,#391,.T.) ;
#411=ORIENTED_EDGE('',*,*,#286,.F.) ;
#412=ORIENTED_EDGE('',*,*,#248,.F.) ;
#413=ORIENTED_EDGE('',*,*,#324,.T.) ;
#414=ORIENTED_EDGE('',*,*,#348,.F.) ;
#415=ORIENTED_EDGE('',*,*,#408,.F.) ;
#418=ORIENTED_EDGE('',*,*,#140,.F.) ;
#419=ORIENTED_EDGE('',*,*,#164,.F.) ;
#422=ORIENTED_EDGE('',*,*,#107,.F.) ;
#423=ORIENTED_EDGE('',*,*,#83,.F.) ;
#437=ORIENTED_EDGE('',*,*,#435,.F.) ;
#438=ORIENTED_EDGE('',*,*,#355,.F.) ;
#439=ORIENTED_EDGE('',*,*,#329,.F.) ;
#440=ORIENTED_EDGE('',*,*,#262,.F.) ;
#441=ORIENTED_EDGE('',*,*,#298,.F.) ;
#442=ORIENTED_EDGE('',*,*,#386,.F.) ;
#445=ORIENTED_EDGE('',*,*,#95,.T.) ;
#446=ORIENTED_EDGE('',*,*,#112,.T.) ;
#455=ORIENTED_EDGE('',*,*,#408,.T.) ;
#456=ORIENTED_EDGE('',*,*,#360,.F.) ;
#457=ORIENTED_EDGE('',*,*,#435,.T.) ;
#458=ORIENTED_EDGE('',*,*,#381,.T.) ;
#522=ORIENTED_EDGE('',*,*,#501,.F.) ;
#523=ORIENTED_EDGE('',*,*,#508,.T.) ;
#524=ORIENTED_EDGE('',*,*,#515,.T.) ;
#525=ORIENTED_EDGE('',*,*,#520,.F.) ;
#539=ORIENTED_EDGE('',*,*,#515,.F.) ;
#540=ORIENTED_EDGE('',*,*,#532,.T.) ;
#541=ORIENTED_EDGE('',*,*,#501,.T.) ;
#542=ORIENTED_EDGE('',*,*,#537,.F.) ;
#551=ORIENTED_EDGE('',*,*,#520,.T.) ;
#552=ORIENTED_EDGE('',*,*,#537,.T.) ;
#589=ORIENTED_EDGE('',*,*,#568,.F.) ;
#590=ORIENTED_EDGE('',*,*,#575,.T.) ;
#591=ORIENTED_EDGE('',*,*,#582,.T.) ;
#592=ORIENTED_EDGE('',*,*,#587,.F.) ;
#606=ORIENTED_EDGE('',*,*,#582,.F.) ;
#607=ORIENTED_EDGE('',*,*,#599,.T.) ;
#608=ORIENTED_EDGE('',*,*,#568,.T.) ;
#609=ORIENTED_EDGE('',*,*,#604,.F.) ;
#646=ORIENTED_EDGE('',*,*,#625,.T.) ;
#647=ORIENTED_EDGE('',*,*,#632,.F.) ;
#648=ORIENTED_EDGE('',*,*,#639,.T.) ;
#649=ORIENTED_EDGE('',*,*,#644,.T.) ;
#677=ORIENTED_EDGE('',*,*,#663,.T.) ;
#678=ORIENTED_EDGE('',*,*,#670,.F.) ;
#679=ORIENTED_EDGE('',*,*,#675,.T.) ;
#680=ORIENTED_EDGE('',*,*,#632,.T.) ;
#708=ORIENTED_EDGE('',*,*,#694,.T.) ;
#709=ORIENTED_EDGE('',*,*,#670,.T.) ;
#710=ORIENTED_EDGE('',*,*,#701,.F.) ;
#711=ORIENTED_EDGE('',*,*,#706,.F.) ;
#739=ORIENTED_EDGE('',*,*,#725,.T.) ;
#740=ORIENTED_EDGE('',*,*,#732,.F.) ;
#741=ORIENTED_EDGE('',*,*,#737,.T.) ;
#742=ORIENTED_EDGE('',*,*,#706,.T.) ;
#770=ORIENTED_EDGE('',*,*,#756,.F.) ;
#771=ORIENTED_EDGE('',*,*,#644,.F.) ;
#772=ORIENTED_EDGE('',*,*,#763,.T.) ;
#773=ORIENTED_EDGE('',*,*,#768,.T.) ;
#787=ORIENTED_EDGE('',*,*,#785,.F.) ;
#788=ORIENTED_EDGE('',*,*,#763,.F.) ;
#789=ORIENTED_EDGE('',*,*,#639,.F.) ;
#790=ORIENTED_EDGE('',*,*,#675,.F.) ;
#791=ORIENTED_EDGE('',*,*,#694,.F.) ;
#792=ORIENTED_EDGE('',*,*,#737,.F.) ;
#795=ORIENTED_EDGE('',*,*,#532,.F.) ;
#796=ORIENTED_EDGE('',*,*,#508,.F.) ;
#799=ORIENTED_EDGE('',*,*,#587,.T.) ;
#800=ORIENTED_EDGE('',*,*,#604,.T.) ;
#814=ORIENTED_EDGE('',*,*,#725,.F.) ;
#815=ORIENTED_EDGE('',*,*,#701,.T.) ;
#816=ORIENTED_EDGE('',*,*,#663,.F.) ;
#817=ORIENTED_EDGE('',*,*,#625,.F.) ;
#818=ORIENTED_EDGE('',*,*,#756,.T.) ;
#819=ORIENTED_EDGE('',*,*,#812,.F.) ;
#822=ORIENTED_EDGE('',*,*,#599,.F.) ;
#823=ORIENTED_EDGE('',*,*,#575,.F.) ;
#832=ORIENTED_EDGE('',*,*,#812,.T.) ;
#833=ORIENTED_EDGE('',*,*,#768,.F.) ;
#834=ORIENTED_EDGE('',*,*,#785,.T.) ;
#835=ORIENTED_EDGE('',*,*,#732,.T.) ;
#899=ORIENTED_EDGE('',*,*,#878,.F.) ;
#900=ORIENTED_EDGE('',*,*,#885,.T.) ;
#901=ORIENTED_EDGE('',*,*,#892,.T.) ;
#902=ORIENTED_EDGE('',*,*,#897,.F.) ;
#916=ORIENTED_EDGE('',*,*,#892,.F.) ;
#917=ORIENTED_EDGE('',*,*,#909,.T.) ;
#918=ORIENTED_EDGE('',*,*,#878,.T.) ;
#919=ORIENTED_EDGE('',*,*,#914,.F.) ;
#928=ORIENTED_EDGE('',*,*,#897,.T.) ;
#929=ORIENTED_EDGE('',*,*,#914,.T.) ;
#966=ORIENTED_EDGE('',*,*,#945,.F.) ;
#967=ORIENTED_EDGE('',*,*,#952,.T.) ;
#968=ORIENTED_EDGE('',*,*,#959,.T.) ;
#969=ORIENTED_EDGE('',*,*,#964,.F.) ;
#983=ORIENTED_EDGE('',*,*,#959,.F.) ;
#984=ORIENTED_EDGE('',*,*,#976,.T.) ;
#985=ORIENTED_EDGE('',*,*,#945,.T.) ;
#986=ORIENTED_EDGE('',*,*,#981,.F.) ;
#1023=ORIENTED_EDGE('',*,*,#1002,.T.) ;
#1024=ORIENTED_EDGE('',*,*,#1009,.F.) ;
#1025=ORIENTED_EDGE('',*,*,#1016,.T.) ;
#1026=ORIENTED_EDGE('',*,*,#1021,.T.) ;
#1054=ORIENTED_EDGE('',*,*,#1040,.T.) ;
#1055=ORIENTED_EDGE('',*,*,#1047,.F.) ;
#1056=ORIENTED_EDGE('',*,*,#1052,.T.) ;
#1057=ORIENTED_EDGE('',*,*,#1009,.T.) ;
#1085=ORIENTED_EDGE('',*,*,#1073,.T.) ;
#1086=ORIENTED_EDGE('',*,*,#1078,.F.) ;
#1087=ORIENTED_EDGE('',*,*,#1021,.F.) ;
#1088=ORIENTED_EDGE('',*,*,#1083,.T.) ;
#1116=ORIENTED_EDGE('',*,*,#1102,.T.) ;
#1117=ORIENTED_EDGE('',*,*,#1073,.F.) ;
#1118=ORIENTED_EDGE('',*,*,#1109,.T.) ;
#1119=ORIENTED_EDGE('',*,*,#1114,.T.) ;
#1147=ORIENTED_EDGE('',*,*,#1135,.F.) ;
#1148=ORIENTED_EDGE('',*,*,#1140,.T.) ;
#1149=ORIENTED_EDGE('',*,*,#1047,.T.) ;
#1150=ORIENTED_EDGE('',*,*,#1145,.F.) ;
#1164=ORIENTED_EDGE('',*,*,#1162,.F.) ;
#1165=ORIENTED_EDGE('',*,*,#1109,.F.) ;
#1166=ORIENTED_EDGE('',*,*,#1083,.F.) ;
#1167=ORIENTED_EDGE('',*,*,#1016,.F.) ;
#1168=ORIENTED_EDGE('',*,*,#1052,.F.) ;
#1169=ORIENTED_EDGE('',*,*,#1140,.F.) ;
#1172=ORIENTED_EDGE('',*,*,#909,.F.) ;
#1173=ORIENTED_EDGE('',*,*,#885,.F.) ;
#1176=ORIENTED_EDGE('',*,*,#964,.T.) ;
#1177=ORIENTED_EDGE('',*,*,#981,.T.) ;
#1191=ORIENTED_EDGE('',*,*,#1145,.T.) ;
#1192=ORIENTED_EDGE('',*,*,#1040,.F.) ;
#1193=ORIENTED_EDGE('',*,*,#1002,.F.) ;
#1194=ORIENTED_EDGE('',*,*,#1078,.T.) ;
#1195=ORIENTED_EDGE('',*,*,#1102,.F.) ;
#1196=ORIENTED_EDGE('',*,*,#1189,.F.) ;
#1199=ORIENTED_EDGE('',*,*,#976,.F.) ;
#1200=ORIENTED_EDGE('',*,*,#952,.F.) ;
#1209=ORIENTED_EDGE('',*,*,#1189,.T.) ;
#1210=ORIENTED_EDGE('',*,*,#1114,.F.) ;
#1211=ORIENTED_EDGE('',*,*,#1162,.T.) ;
#1212=ORIENTED_EDGE('',*,*,#1135,.T.) ;
#1276=ORIENTED_EDGE('',*,*,#1255,.F.) ;
#1277=ORIENTED_EDGE('',*,*,#1262,.T.) ;
#1278=ORIENTED_EDGE('',*,*,#1269,.T.) ;
#1279=ORIENTED_EDGE('',*,*,#1274,.F.) ;
#1293=ORIENTED_EDGE('',*,*,#1269,.F.) ;
#1294=ORIENTED_EDGE('',*,*,#1286,.T.) ;
#1295=ORIENTED_EDGE('',*,*,#1255,.T.) ;
#1296=ORIENTED_EDGE('',*,*,#1291,.F.) ;
#1305=ORIENTED_EDGE('',*,*,#1274,.T.) ;
#1306=ORIENTED_EDGE('',*,*,#1291,.T.) ;
#1343=ORIENTED_EDGE('',*,*,#1322,.F.) ;
#1344=ORIENTED_EDGE('',*,*,#1329,.T.) ;
#1345=ORIENTED_EDGE('',*,*,#1336,.T.) ;
#1346=ORIENTED_EDGE('',*,*,#1341,.F.) ;
#1360=ORIENTED_EDGE('',*,*,#1336,.F.) ;
#1361=ORIENTED_EDGE('',*,*,#1353,.T.) ;
#1362=ORIENTED_EDGE('',*,*,#1322,.T.) ;
#1363=ORIENTED_EDGE('',*,*,#1358,.F.) ;
#1400=ORIENTED_EDGE('',*,*,#1379,.T.) ;
#1401=ORIENTED_EDGE('',*,*,#1386,.F.) ;
#1402=ORIENTED_EDGE('',*,*,#1393,.T.) ;
#1403=ORIENTED_EDGE('',*,*,#1398,.T.) ;
#1431=ORIENTED_EDGE('',*,*,#1417,.T.) ;
#1432=ORIENTED_EDGE('',*,*,#1424,.F.) ;
#1433=ORIENTED_EDGE('',*,*,#1429,.T.) ;
#1434=ORIENTED_EDGE('',*,*,#1386,.T.) ;
#1462=ORIENTED_EDGE('',*,*,#1448,.F.) ;
#1463=ORIENTED_EDGE('',*,*,#1398,.F.) ;
#1464=ORIENTED_EDGE('',*,*,#1455,.T.) ;
#1465=ORIENTED_EDGE('',*,*,#1460,.T.) ;
#1493=ORIENTED_EDGE('',*,*,#1479,.T.) ;
#1494=ORIENTED_EDGE('',*,*,#1460,.F.) ;
#1495=ORIENTED_EDGE('',*,*,#1486,.T.) ;
#1496=ORIENTED_EDGE('',*,*,#1491,.T.) ;
#1524=ORIENTED_EDGE('',*,*,#1510,.T.) ;
#1525=ORIENTED_EDGE('',*,*,#1424,.T.) ;
#1526=ORIENTED_EDGE('',*,*,#1517,.F.) ;
#1527=ORIENTED_EDGE('',*,*,#1522,.F.) ;
#1541=ORIENTED_EDGE('',*,*,#1539,.F.) ;
#1542=ORIENTED_EDGE('',*,*,#1486,.F.) ;
#1543=ORIENTED_EDGE('',*,*,#1455,.F.) ;
#1544=ORIENTED_EDGE('',*,*,#1393,.F.) ;
#1545=ORIENTED_EDGE('',*,*,#1429,.F.) ;
#1546=ORIENTED_EDGE('',*,*,#1510,.F.) ;
#1549=ORIENTED_EDGE('',*,*,#1286,.F.) ;
#1550=ORIENTED_EDGE('',*,*,#1262,.F.) ;
#1553=ORIENTED_EDGE('',*,*,#1341,.T.) ;
#1554=ORIENTED_EDGE('',*,*,#1358,.T.) ;
#1568=ORIENTED_EDGE('',*,*,#1517,.T.) ;
#1569=ORIENTED_EDGE('',*,*,#1417,.F.) ;
#1570=ORIENTED_EDGE('',*,*,#1379,.F.) ;
#1571=ORIENTED_EDGE('',*,*,#1448,.T.) ;
#1572=ORIENTED_EDGE('',*,*,#1479,.F.) ;
#1573=ORIENTED_EDGE('',*,*,#1566,.F.) ;
#1576=ORIENTED_EDGE('',*,*,#1353,.F.) ;
#1577=ORIENTED_EDGE('',*,*,#1329,.F.) ;
#1586=ORIENTED_EDGE('',*,*,#1566,.T.) ;
#1587=ORIENTED_EDGE('',*,*,#1491,.F.) ;
#1588=ORIENTED_EDGE('',*,*,#1539,.T.) ;
#1589=ORIENTED_EDGE('',*,*,#1522,.T.) ;
#420=FACE_BOUND('',#417,.T.) ;
#424=FACE_BOUND('',#421,.T.) ;
#447=FACE_BOUND('',#444,.T.) ;
#797=FACE_BOUND('',#794,.T.) ;
#801=FACE_BOUND('',#798,.T.) ;
#824=FACE_BOUND('',#821,.T.) ;
#1174=FACE_BOUND('',#1171,.T.) ;
#1178=FACE_BOUND('',#1175,.T.) ;
#1201=FACE_BOUND('',#1198,.T.) ;
#1551=FACE_BOUND('',#1548,.T.) ;
#1555=FACE_BOUND('',#1552,.T.) ;
#1578=FACE_BOUND('',#1575,.T.) ;
#62=CLOSED_SHELL('Closed Shell',(#102,#119,#159,#176,#200,#222,#234,#274,#305,#336,#367,#398,#425,#448,#460)) ;
#487=CLOSED_SHELL('Closed Shell',(#527,#544,#554,#594,#611,#651,#682,#713,#744,#775,#802,#825,#837)) ;
#864=CLOSED_SHELL('Closed Shell',(#904,#921,#931,#971,#988,#1028,#1059,#1090,#1121,#1152,#1179,#1202,#1214)) ;
#1241=CLOSED_SHELL('Closed Shell',(#1281,#1298,#1308,#1348,#1365,#1405,#1436,#1467,#1498,#1529,#1556,#1579,#1591)) ;
#468=ITEM_DEFINED_TRANSFORMATION(' ',' ',#470,#469) ;
#845=ITEM_DEFINED_TRANSFORMATION(' ',' ',#847,#846) ;
#1222=ITEM_DEFINED_TRANSFORMATION(' ',' ',#1224,#1223) ;
#1599=ITEM_DEFINED_TRANSFORMATION(' ',' ',#1601,#1600) ;
#70=VECTOR('Line Direction',#69,1.) ;
#86=VECTOR('Line Direction',#85,1.) ;
#127=VECTOR('Line Direction',#126,1.) ;
#143=VECTOR('Line Direction',#142,1.) ;
#251=VECTOR('Line Direction',#250,1.) ;
#265=VECTOR('Line Direction',#264,1.) ;
#289=VECTOR('Line Direction',#288,1.) ;
#313=VECTOR('Line Direction',#312,1.) ;
#322=VECTOR('Line Direction',#321,1.) ;
#327=VECTOR('Line Direction',#326,1.) ;
#358=VECTOR('Line Direction',#357,1.) ;
#375=VECTOR('Line Direction',#374,1.) ;
#384=VECTOR('Line Direction',#383,1.) ;
#389=VECTOR('Line Direction',#388,1.) ;
#495=VECTOR('Line Direction',#494,1.) ;
#511=VECTOR('Line Direction',#510,1.) ;
#562=VECTOR('Line Direction',#561,1.) ;
#578=VECTOR('Line Direction',#577,1.) ;
#628=VECTOR('Line Direction',#627,1.) ;
#642=VECTOR('Line Direction',#641,1.) ;
#666=VECTOR('Line Direction',#665,1.) ;
#690=VECTOR('Line Direction',#689,1.) ;
#697=VECTOR('Line Direction',#696,1.) ;
#704=VECTOR('Line Direction',#703,1.) ;
#728=VECTOR('Line Direction',#727,1.) ;
#752=VECTOR('Line Direction',#751,1.) ;
#759=VECTOR('Line Direction',#758,1.) ;
#766=VECTOR('Line Direction',#765,1.) ;
#872=VECTOR('Line Direction',#871,1.) ;
#888=VECTOR('Line Direction',#887,1.) ;
#939=VECTOR('Line Direction',#938,1.) ;
#955=VECTOR('Line Direction',#954,1.) ;
#1005=VECTOR('Line Direction',#1004,1.) ;
#1019=VECTOR('Line Direction',#1018,1.) ;
#1043=VECTOR('Line Direction',#1042,1.) ;
#1067=VECTOR('Line Direction',#1066,1.) ;
#1076=VECTOR('Line Direction',#1075,1.) ;
#1081=VECTOR('Line Direction',#1080,1.) ;
#1112=VECTOR('Line Direction',#1111,1.) ;
#1129=VECTOR('Line Direction',#1128,1.) ;
#1138=VECTOR('Line Direction',#1137,1.) ;
#1143=VECTOR('Line Direction',#1142,1.) ;
#1249=VECTOR('Line Direction',#1248,1.) ;
#1265=VECTOR('Line Direction',#1264,1.) ;
#1316=VECTOR('Line Direction',#1315,1.) ;
#1332=VECTOR('Line Direction',#1331,1.) ;
#1382=VECTOR('Line Direction',#1381,1.) ;
#1396=VECTOR('Line Direction',#1395,1.) ;
#1420=VECTOR('Line Direction',#1419,1.) ;
#1444=VECTOR('Line Direction',#1443,1.) ;
#1451=VECTOR('Line Direction',#1450,1.) ;
#1458=VECTOR('Line Direction',#1457,1.) ;
#1489=VECTOR('Line Direction',#1488,1.) ;
#1506=VECTOR('Line Direction',#1505,1.) ;
#1513=VECTOR('Line Direction',#1512,1.) ;
#1520=VECTOR('Line Direction',#1519,1.) ;
#462=ADVANCED_BREP_SHAPE_REPRESENTATION('NONE',(#461),#53) ;
#839=ADVANCED_BREP_SHAPE_REPRESENTATION('NONE',(#838),#478) ;
#1216=ADVANCED_BREP_SHAPE_REPRESENTATION('NONE',(#1215),#855) ;
#1593=ADVANCED_BREP_SHAPE_REPRESENTATION('NONE',(#1592),#1232) ;
#44=SHAPE_REPRESENTATION(' ',(#469,#846,#1223,#1600),#51) ;
#54=SHAPE_REPRESENTATION(' ',(#470),#53) ;
#479=SHAPE_REPRESENTATION(' ',(#847),#478) ;
#856=SHAPE_REPRESENTATION(' ',(#1224),#855) ;
#1233=SHAPE_REPRESENTATION(' ',(#1601),#1232) ;
#102=ADVANCED_FACE('PartBody',(#101),#67,.F.) ;
#119=ADVANCED_FACE('PartBody',(#118),#67,.F.) ;
#159=ADVANCED_FACE('PartBody',(#158),#124,.T.) ;
#176=ADVANCED_FACE('PartBody',(#175),#124,.T.) ;
#200=ADVANCED_FACE('PartBody',(#199),#181,.T.) ;
#222=ADVANCED_FACE('PartBody',(#221),#205,.T.) ;
#234=ADVANCED_FACE('PartBody',(#233),#227,.T.) ;
#274=ADVANCED_FACE('PartBody',(#273),#239,.T.) ;
#305=ADVANCED_FACE('PartBody',(#304),#279,.T.) ;
#336=ADVANCED_FACE('PartBody',(#335),#310,.F.) ;
#367=ADVANCED_FACE('PartBody',(#366),#341,.T.) ;
#398=ADVANCED_FACE('PartBody',(#397),#372,.F.) ;
#425=ADVANCED_FACE('PartBody',(#416,#420,#424),#403,.T.) ;
#448=ADVANCED_FACE('PartBody',(#443,#447),#430,.F.) ;
#460=ADVANCED_FACE('PartBody',(#459),#453,.T.) ;
#527=ADVANCED_FACE('PartBody',(#526),#492,.T.) ;
#544=ADVANCED_FACE('PartBody',(#543),#492,.T.) ;
#554=ADVANCED_FACE('PartBody',(#553),#549,.T.) ;
#594=ADVANCED_FACE('PartBody',(#593),#559,.F.) ;
#611=ADVANCED_FACE('PartBody',(#610),#559,.F.) ;
#651=ADVANCED_FACE('PartBody',(#650),#616,.T.) ;
#682=ADVANCED_FACE('PartBody',(#681),#656,.T.) ;
#713=ADVANCED_FACE('PartBody',(#712),#687,.T.) ;
#744=ADVANCED_FACE('PartBody',(#743),#718,.T.) ;
#775=ADVANCED_FACE('PartBody',(#774),#749,.T.) ;
#802=ADVANCED_FACE('PartBody',(#793,#797,#801),#780,.F.) ;
#825=ADVANCED_FACE('PartBody',(#820,#824),#807,.T.) ;
#837=ADVANCED_FACE('PartBody',(#836),#830,.T.) ;
#904=ADVANCED_FACE('PartBody',(#903),#869,.T.) ;
#921=ADVANCED_FACE('PartBody',(#920),#869,.T.) ;
#931=ADVANCED_FACE('PartBody',(#930),#926,.T.) ;
#971=ADVANCED_FACE('PartBody',(#970),#936,.F.) ;
#988=ADVANCED_FACE('PartBody',(#987),#936,.F.) ;
#1028=ADVANCED_FACE('PartBody',(#1027),#993,.T.) ;
#1059=ADVANCED_FACE('PartBody',(#1058),#1033,.T.) ;
#1090=ADVANCED_FACE('PartBody',(#1089),#1064,.F.) ;
#1121=ADVANCED_FACE('PartBody',(#1120),#1095,.T.) ;
#1152=ADVANCED_FACE('PartBody',(#1151),#1126,.F.) ;
#1179=ADVANCED_FACE('PartBody',(#1170,#1174,#1178),#1157,.F.) ;
#1202=ADVANCED_FACE('PartBody',(#1197,#1201),#1184,.T.) ;
#1214=ADVANCED_FACE('PartBody',(#1213),#1207,.T.) ;
#1281=ADVANCED_FACE('PartBody',(#1280),#1246,.T.) ;
#1298=ADVANCED_FACE('PartBody',(#1297),#1246,.T.) ;
#1308=ADVANCED_FACE('PartBody',(#1307),#1303,.T.) ;
#1348=ADVANCED_FACE('PartBody',(#1347),#1313,.F.) ;
#1365=ADVANCED_FACE('PartBody',(#1364),#1313,.F.) ;
#1405=ADVANCED_FACE('PartBody',(#1404),#1370,.T.) ;
#1436=ADVANCED_FACE('PartBody',(#1435),#1410,.T.) ;
#1467=ADVANCED_FACE('PartBody',(#1466),#1441,.T.) ;
#1498=ADVANCED_FACE('PartBody',(#1497),#1472,.T.) ;
#1529=ADVANCED_FACE('PartBody',(#1528),#1503,.T.) ;
#1556=ADVANCED_FACE('PartBody',(#1547,#1551,#1555),#1534,.F.) ;
#1579=ADVANCED_FACE('PartBody',(#1574,#1578),#1561,.T.) ;
#1591=ADVANCED_FACE('PartBody',(#1590),#1584,.T.) ;
#4=APPLICATION_PROTOCOL_DEFINITION('international standard','config_control_design',1994,#1) ;
#35=APPROVAL_DATE_TIME(#13,#24) ;
#461=MANIFOLD_SOLID_BREP('PartBody',#62) ;
#838=MANIFOLD_SOLID_BREP('PartBody',#487) ;
#1215=MANIFOLD_SOLID_BREP('PartBody',#864) ;
#1592=MANIFOLD_SOLID_BREP('PartBody',#1241) ;
#11=CALENDAR_DATE(2023,29,1) ;
#33=CC_DESIGN_APPROVAL(#24,(#19,#6,#17)) ;
#21=CC_DESIGN_DATE_AND_TIME_ASSIGNMENT(#13,#20,(#19)) ;
#32=CC_DESIGN_DATE_AND_TIME_ASSIGNMENT(#13,#31,(#17)) ;
#20=DATE_TIME_ROLE('classification_date') ;
#31=DATE_TIME_ROLE('creation_date') ;
#30=CC_DESIGN_PERSON_AND_ORGANIZATION_ASSIGNMENT(#28,#29,(#19)) ;
#36=CC_DESIGN_PERSON_AND_ORGANIZATION_ASSIGNMENT(#28,#37,(#6)) ;
#38=CC_DESIGN_PERSON_AND_ORGANIZATION_ASSIGNMENT(#28,#39,(#6,#17)) ;
#40=CC_DESIGN_PERSON_AND_ORGANIZATION_ASSIGNMENT(#28,#41,(#5)) ;
#29=PERSON_AND_ORGANIZATION_ROLE('classification_officer') ;
#37=PERSON_AND_ORGANIZATION_ROLE('design_supplier') ;
#39=PERSON_AND_ORGANIZATION_ROLE('creator') ;
#41=PERSON_AND_ORGANIZATION_ROLE('design_owner') ;
#42=CC_DESIGN_SECURITY_CLASSIFICATION(#19,(#6,#464,#841,#1218,#1595)) ;
#60=DOCUMENT('1','input.CATPart','CATPart document',#59) ;
#485=DOCUMENT('2','2.CATPart','CATPart document',#484) ;
#862=DOCUMENT('3','3.CATPart','CATPart document',#861) ;
#1239=DOCUMENT('4','4.CATPart','CATPart document',#1238) ;
#59=DOCUMENT_TYPE('') ;
#484=DOCUMENT_TYPE('') ;
#861=DOCUMENT_TYPE('') ;
#1238=DOCUMENT_TYPE('') ;
#80=CIRCLE('generated circle',#79,7.5) ;
#94=CIRCLE('generated circle',#93,7.5) ;
#106=CIRCLE('generated circle',#105,7.5) ;
#111=CIRCLE('generated circle',#110,7.5) ;
#137=CIRCLE('generated circle',#136,7.5) ;
#151=CIRCLE('generated circle',#150,7.5) ;
#163=CIRCLE('generated circle',#162,7.5) ;
#168=CIRCLE('generated circle',#167,7.5) ;
#185=CIRCLE('generated circle',#184,6.5) ;
#194=CIRCLE('generated circle',#193,6.5) ;
#209=CIRCLE('generated circle',#208,1.) ;
#214=CIRCLE('generated circle',#213,1.) ;
#243=CIRCLE('generated circle',#242,15.) ;
#259=CIRCLE('generated circle',#258,15.) ;
#283=CIRCLE('generated circle',#282,15.) ;
#297=CIRCLE('generated circle',#296,15.) ;
#345=CIRCLE('generated circle',#344,15.) ;
#352=CIRCLE('generated circle',#351,15.) ;
#407=CIRCLE('generated circle',#406,15.) ;
#434=CIRCLE('generated circle',#433,15.) ;
#505=CIRCLE('generated circle',#504,7.5) ;
#519=CIRCLE('generated circle',#518,7.5) ;
#531=CIRCLE('generated circle',#530,7.5) ;
#536=CIRCLE('generated circle',#535,7.5) ;
#572=CIRCLE('generated circle',#571,7.5) ;
#586=CIRCLE('generated circle',#585,7.5) ;
#598=CIRCLE('generated circle',#597,7.5) ;
#603=CIRCLE('generated circle',#602,7.5) ;
#620=CIRCLE('generated circle',#619,15.) ;
#636=CIRCLE('generated circle',#635,15.) ;
#660=CIRCLE('generated circle',#659,15.) ;
#674=CIRCLE('generated circle',#673,15.) ;
#722=CIRCLE('generated circle',#721,15.) ;
#736=CIRCLE('generated circle',#735,15.) ;
#784=CIRCLE('generated circle',#783,15.) ;
#811=CIRCLE('generated circle',#810,15.) ;
#882=CIRCLE('generated circle',#881,7.5) ;
#896=CIRCLE('generated circle',#895,7.5) ;
#908=CIRCLE('generated circle',#907,7.5) ;
#913=CIRCLE('generated circle',#912,7.5) ;
#949=CIRCLE('generated circle',#948,7.5) ;
#963=CIRCLE('generated circle',#962,7.5) ;
#975=CIRCLE('generated circle',#974,7.5) ;
#980=CIRCLE('generated circle',#979,7.5) ;
#997=CIRCLE('generated circle',#996,15.) ;
#1013=CIRCLE('generated circle',#1012,15.) ;
#1037=CIRCLE('generated circle',#1036,15.) ;
#1051=CIRCLE('generated circle',#1050,15.) ;
#1099=CIRCLE('generated circle',#1098,15.) ;
#1106=CIRCLE('generated circle',#1105,15.) ;
#1161=CIRCLE('generated circle',#1160,15.) ;
#1188=CIRCLE('generated circle',#1187,15.) ;
#1259=CIRCLE('generated circle',#1258,7.5) ;
#1273=CIRCLE('generated circle',#1272,7.5) ;
#1285=CIRCLE('generated circle',#1284,7.5) ;
#1290=CIRCLE('generated circle',#1289,7.5) ;
#1326=CIRCLE('generated circle',#1325,7.5) ;
#1340=CIRCLE('generated circle',#1339,7.5) ;
#1352=CIRCLE('generated circle',#1351,7.5) ;
#1357=CIRCLE('generated circle',#1356,7.5) ;
#1374=CIRCLE('generated circle',#1373,15.) ;
#1390=CIRCLE('generated circle',#1389,15.) ;
#1414=CIRCLE('generated circle',#1413,15.) ;
#1428=CIRCLE('generated circle',#1427,15.) ;
#1476=CIRCLE('generated circle',#1475,15.) ;
#1483=CIRCLE('generated circle',#1482,15.) ;
#1538=CIRCLE('generated circle',#1537,15.) ;
#1565=CIRCLE('generated circle',#1564,15.) ;
#466=CONTEXT_DEPENDENT_SHAPE_REPRESENTATION(#467,#465) ;
#843=CONTEXT_DEPENDENT_SHAPE_REPRESENTATION(#844,#842) ;
#1220=CONTEXT_DEPENDENT_SHAPE_REPRESENTATION(#1221,#1219) ;
#1597=CONTEXT_DEPENDENT_SHAPE_REPRESENTATION(#1598,#1596) ;
#463=SHAPE_REPRESENTATION_RELATIONSHIP(' ',' ',#54,#462) ;
#840=SHAPE_REPRESENTATION_RELATIONSHIP(' ',' ',#479,#839) ;
#1217=SHAPE_REPRESENTATION_RELATIONSHIP(' ',' ',#856,#1216) ;
#1594=SHAPE_REPRESENTATION_RELATIONSHIP(' ',' ',#1233,#1593) ;
#67=CYLINDRICAL_SURFACE('generated cylinder',#66,7.5) ;
#124=CYLINDRICAL_SURFACE('generated cylinder',#123,7.5) ;
#239=CYLINDRICAL_SURFACE('generated cylinder',#238,15.) ;
#279=CYLINDRICAL_SURFACE('generated cylinder',#278,15.) ;
#341=CYLINDRICAL_SURFACE('generated cylinder',#340,15.) ;
#453=CYLINDRICAL_SURFACE('generated cylinder',#452,15.) ;
#492=CYLINDRICAL_SURFACE('generated cylinder',#491,7.5) ;
#559=CYLINDRICAL_SURFACE('generated cylinder',#558,7.5) ;
#616=CYLINDRICAL_SURFACE('generated cylinder',#615,15.) ;
#656=CYLINDRICAL_SURFACE('generated cylinder',#655,15.) ;
#718=CYLINDRICAL_SURFACE('generated cylinder',#717,15.) ;
#830=CYLINDRICAL_SURFACE('generated cylinder',#829,15.) ;
#869=CYLINDRICAL_SURFACE('generated cylinder',#868,7.5) ;
#936=CYLINDRICAL_SURFACE('generated cylinder',#935,7.5) ;
#993=CYLINDRICAL_SURFACE('generated cylinder',#992,15.) ;
#1033=CYLINDRICAL_SURFACE('generated cylinder',#1032,15.) ;
#1095=CYLINDRICAL_SURFACE('generated cylinder',#1094,15.) ;
#1207=CYLINDRICAL_SURFACE('generated cylinder',#1206,15.) ;
#1246=CYLINDRICAL_SURFACE('generated cylinder',#1245,7.5) ;
#1313=CYLINDRICAL_SURFACE('generated cylinder',#1312,7.5) ;
#1370=CYLINDRICAL_SURFACE('generated cylinder',#1369,15.) ;
#1410=CYLINDRICAL_SURFACE('generated cylinder',#1409,15.) ;
#1472=CYLINDRICAL_SURFACE('generated cylinder',#1471,15.) ;
#1584=CYLINDRICAL_SURFACE('generated cylinder',#1583,15.) ;
#205=TOROIDAL_SURFACE('homeo Torus',#204,6.5,1.) ;
#227=TOROIDAL_SURFACE('homeo Torus',#226,6.5,1.) ;
#3=DESIGN_CONTEXT(' ',#1,'design') ;
#76=EDGE_CURVE('',#73,#75,#71,.F.) ;
#83=EDGE_CURVE('',#73,#82,#80,.T.) ;
#90=EDGE_CURVE('',#82,#89,#87,.F.) ;
#95=EDGE_CURVE('',#75,#89,#94,.T.) ;
#107=EDGE_CURVE('',#82,#73,#106,.T.) ;
#112=EDGE_CURVE('',#89,#75,#111,.T.) ;
#133=EDGE_CURVE('',#130,#132,#128,.T.) ;
#140=EDGE_CURVE('',#130,#139,#137,.T.) ;
#147=EDGE_CURVE('',#139,#146,#144,.T.) ;
#152=EDGE_CURVE('',#132,#146,#151,.T.) ;
#164=EDGE_CURVE('',#139,#130,#163,.T.) ;
#169=EDGE_CURVE('',#146,#132,#168,.T.) ;
#190=EDGE_CURVE('',#187,#189,#185,.T.) ;
#195=EDGE_CURVE('',#189,#187,#194,.T.) ;
#210=EDGE_CURVE('',#187,#146,#209,.F.) ;
#215=EDGE_CURVE('',#189,#132,#214,.F.) ;
#248=EDGE_CURVE('',#245,#247,#243,.F.) ;
#255=EDGE_CURVE('',#254,#247,#252,.T.) ;
#262=EDGE_CURVE('',#254,#261,#259,.T.) ;
#267=EDGE_CURVE('',#261,#245,#266,.T.) ;
#286=EDGE_CURVE('',#247,#285,#283,.F.) ;
#293=EDGE_CURVE('',#292,#285,#290,.T.) ;
#298=EDGE_CURVE('',#292,#254,#297,.T.) ;
#319=EDGE_CURVE('',#316,#318,#314,.T.) ;
#324=EDGE_CURVE('',#245,#318,#323,.F.) ;
#329=EDGE_CURVE('',#261,#316,#328,.F.) ;
#348=EDGE_CURVE('',#347,#318,#345,.F.) ;
#355=EDGE_CURVE('',#316,#354,#352,.T.) ;
#360=EDGE_CURVE('',#354,#347,#359,.T.) ;
#381=EDGE_CURVE('',#378,#380,#376,.T.) ;
#386=EDGE_CURVE('',#378,#292,#385,.F.) ;
#391=EDGE_CURVE('',#380,#285,#390,.F.) ;
#408=EDGE_CURVE('',#380,#347,#407,.F.) ;
#435=EDGE_CURVE('',#354,#378,#434,.T.) ;
#501=EDGE_CURVE('',#498,#500,#496,.T.) ;
#508=EDGE_CURVE('',#498,#507,#505,.T.) ;
#515=EDGE_CURVE('',#507,#514,#512,.T.) ;
#520=EDGE_CURVE('',#500,#514,#519,.T.) ;
#532=EDGE_CURVE('',#507,#498,#531,.T.) ;
#537=EDGE_CURVE('',#514,#500,#536,.T.) ;
#568=EDGE_CURVE('',#565,#567,#563,.F.) ;
#575=EDGE_CURVE('',#565,#574,#572,.T.) ;
#582=EDGE_CURVE('',#574,#581,#579,.F.) ;
#587=EDGE_CURVE('',#567,#581,#586,.T.) ;
#599=EDGE_CURVE('',#574,#565,#598,.T.) ;
#604=EDGE_CURVE('',#581,#567,#603,.T.) ;
#625=EDGE_CURVE('',#622,#624,#620,.F.) ;
#632=EDGE_CURVE('',#631,#624,#629,.T.) ;
#639=EDGE_CURVE('',#631,#638,#636,.T.) ;
#644=EDGE_CURVE('',#638,#622,#643,.T.) ;
#663=EDGE_CURVE('',#624,#662,#660,.F.) ;
#670=EDGE_CURVE('',#669,#662,#667,.T.) ;
#675=EDGE_CURVE('',#669,#631,#674,.T.) ;
#694=EDGE_CURVE('',#693,#669,#691,.T.) ;
#701=EDGE_CURVE('',#700,#662,#698,.T.) ;
#706=EDGE_CURVE('',#693,#700,#705,.T.) ;
#725=EDGE_CURVE('',#700,#724,#722,.F.) ;
#732=EDGE_CURVE('',#731,#724,#729,.T.) ;
#737=EDGE_CURVE('',#731,#693,#736,.T.) ;
#756=EDGE_CURVE('',#622,#755,#753,.T.) ;
#763=EDGE_CURVE('',#638,#762,#760,.T.) ;
#768=EDGE_CURVE('',#762,#755,#767,.T.) ;
#785=EDGE_CURVE('',#762,#731,#784,.T.) ;
#812=EDGE_CURVE('',#724,#755,#811,.F.) ;
#878=EDGE_CURVE('',#875,#877,#873,.T.) ;
#885=EDGE_CURVE('',#875,#884,#882,.T.) ;
#892=EDGE_CURVE('',#884,#891,#889,.T.) ;
#897=EDGE_CURVE('',#877,#891,#896,.T.) ;
#909=EDGE_CURVE('',#884,#875,#908,.T.) ;
#914=EDGE_CURVE('',#891,#877,#913,.T.) ;
#945=EDGE_CURVE('',#942,#944,#940,.F.) ;
#952=EDGE_CURVE('',#942,#951,#949,.T.) ;
#959=EDGE_CURVE('',#951,#958,#956,.F.) ;
#964=EDGE_CURVE('',#944,#958,#963,.T.) ;
#976=EDGE_CURVE('',#951,#942,#975,.T.) ;
#981=EDGE_CURVE('',#958,#944,#980,.T.) ;
#1002=EDGE_CURVE('',#999,#1001,#997,.F.) ;
#1009=EDGE_CURVE('',#1008,#1001,#1006,.T.) ;
#1016=EDGE_CURVE('',#1008,#1015,#1013,.T.) ;
#1021=EDGE_CURVE('',#1015,#999,#1020,.T.) ;
#1040=EDGE_CURVE('',#1001,#1039,#1037,.F.) ;
#1047=EDGE_CURVE('',#1046,#1039,#1044,.T.) ;
#1052=EDGE_CURVE('',#1046,#1008,#1051,.T.) ;
#1073=EDGE_CURVE('',#1070,#1072,#1068,.T.) ;
#1078=EDGE_CURVE('',#999,#1072,#1077,.F.) ;
#1083=EDGE_CURVE('',#1015,#1070,#1082,.F.) ;
#1102=EDGE_CURVE('',#1101,#1072,#1099,.F.) ;
#1109=EDGE_CURVE('',#1070,#1108,#1106,.T.) ;
#1114=EDGE_CURVE('',#1108,#1101,#1113,.T.) ;
#1135=EDGE_CURVE('',#1132,#1134,#1130,.T.) ;
#1140=EDGE_CURVE('',#1132,#1046,#1139,.F.) ;
#1145=EDGE_CURVE('',#1134,#1039,#1144,.F.) ;
#1162=EDGE_CURVE('',#1108,#1132,#1161,.T.) ;
#1189=EDGE_CURVE('',#1134,#1101,#1188,.F.) ;
#1255=EDGE_CURVE('',#1252,#1254,#1250,.T.) ;
#1262=EDGE_CURVE('',#1252,#1261,#1259,.T.) ;
#1269=EDGE_CURVE('',#1261,#1268,#1266,.T.) ;
#1274=EDGE_CURVE('',#1254,#1268,#1273,.T.) ;
#1286=EDGE_CURVE('',#1261,#1252,#1285,.T.) ;
#1291=EDGE_CURVE('',#1268,#1254,#1290,.T.) ;
#1322=EDGE_CURVE('',#1319,#1321,#1317,.F.) ;
#1329=EDGE_CURVE('',#1319,#1328,#1326,.T.) ;
#1336=EDGE_CURVE('',#1328,#1335,#1333,.F.) ;
#1341=EDGE_CURVE('',#1321,#1335,#1340,.T.) ;
#1353=EDGE_CURVE('',#1328,#1319,#1352,.T.) ;
#1358=EDGE_CURVE('',#1335,#1321,#1357,.T.) ;
#1379=EDGE_CURVE('',#1376,#1378,#1374,.F.) ;
#1386=EDGE_CURVE('',#1385,#1378,#1383,.T.) ;
#1393=EDGE_CURVE('',#1385,#1392,#1390,.T.) ;
#1398=EDGE_CURVE('',#1392,#1376,#1397,.T.) ;
#1417=EDGE_CURVE('',#1378,#1416,#1414,.F.) ;
#1424=EDGE_CURVE('',#1423,#1416,#1421,.T.) ;
#1429=EDGE_CURVE('',#1423,#1385,#1428,.T.) ;
#1448=EDGE_CURVE('',#1376,#1447,#1445,.T.) ;
#1455=EDGE_CURVE('',#1392,#1454,#1452,.T.) ;
#1460=EDGE_CURVE('',#1454,#1447,#1459,.T.) ;
#1479=EDGE_CURVE('',#1478,#1447,#1476,.F.) ;
#1486=EDGE_CURVE('',#1454,#1485,#1483,.T.) ;
#1491=EDGE_CURVE('',#1485,#1478,#1490,.T.) ;
#1510=EDGE_CURVE('',#1509,#1423,#1507,.T.) ;
#1517=EDGE_CURVE('',#1516,#1416,#1514,.T.) ;
#1522=EDGE_CURVE('',#1509,#1516,#1521,.T.) ;
#1539=EDGE_CURVE('',#1485,#1509,#1538,.T.) ;
#1566=EDGE_CURVE('',#1516,#1478,#1565,.F.) ;
#96=EDGE_LOOP('',(#97,#98,#99,#100)) ;
#113=EDGE_LOOP('',(#114,#115,#116,#117)) ;
#153=EDGE_LOOP('',(#154,#155,#156,#157)) ;
#170=EDGE_LOOP('',(#171,#172,#173,#174)) ;
#196=EDGE_LOOP('',(#197,#198)) ;
#216=EDGE_LOOP('',(#217,#218,#219,#220)) ;
#228=EDGE_LOOP('',(#229,#230,#231,#232)) ;
#268=EDGE_LOOP('',(#269,#270,#271,#272)) ;
#299=EDGE_LOOP('',(#300,#301,#302,#303)) ;
#330=EDGE_LOOP('',(#331,#332,#333,#334)) ;
#361=EDGE_LOOP('',(#362,#363,#364,#365)) ;
#392=EDGE_LOOP('',(#393,#394,#395,#396)) ;
#409=EDGE_LOOP('',(#410,#411,#412,#413,#414,#415)) ;
#417=EDGE_LOOP('',(#418,#419)) ;
#421=EDGE_LOOP('',(#422,#423)) ;
#436=EDGE_LOOP('',(#437,#438,#439,#440,#441,#442)) ;
#444=EDGE_LOOP('',(#445,#446)) ;
#454=EDGE_LOOP('',(#455,#456,#457,#458)) ;
#521=EDGE_LOOP('',(#522,#523,#524,#525)) ;
#538=EDGE_LOOP('',(#539,#540,#541,#542)) ;
#550=EDGE_LOOP('',(#551,#552)) ;
#588=EDGE_LOOP('',(#589,#590,#591,#592)) ;
#605=EDGE_LOOP('',(#606,#607,#608,#609)) ;
#645=EDGE_LOOP('',(#646,#647,#648,#649)) ;
#676=EDGE_LOOP('',(#677,#678,#679,#680)) ;
#707=EDGE_LOOP('',(#708,#709,#710,#711)) ;
#738=EDGE_LOOP('',(#739,#740,#741,#742)) ;
#769=EDGE_LOOP('',(#770,#771,#772,#773)) ;
#786=EDGE_LOOP('',(#787,#788,#789,#790,#791,#792)) ;
#794=EDGE_LOOP('',(#795,#796)) ;
#798=EDGE_LOOP('',(#799,#800)) ;
#813=EDGE_LOOP('',(#814,#815,#816,#817,#818,#819)) ;
#821=EDGE_LOOP('',(#822,#823)) ;
#831=EDGE_LOOP('',(#832,#833,#834,#835)) ;
#898=EDGE_LOOP('',(#899,#900,#901,#902)) ;
#915=EDGE_LOOP('',(#916,#917,#918,#919)) ;
#927=EDGE_LOOP('',(#928,#929)) ;
#965=EDGE_LOOP('',(#966,#967,#968,#969)) ;
#982=EDGE_LOOP('',(#983,#984,#985,#986)) ;
#1022=EDGE_LOOP('',(#1023,#1024,#1025,#1026)) ;
#1053=EDGE_LOOP('',(#1054,#1055,#1056,#1057)) ;
#1084=EDGE_LOOP('',(#1085,#1086,#1087,#1088)) ;
#1115=EDGE_LOOP('',(#1116,#1117,#1118,#1119)) ;
#1146=EDGE_LOOP('',(#1147,#1148,#1149,#1150)) ;
#1163=EDGE_LOOP('',(#1164,#1165,#1166,#1167,#1168,#1169)) ;
#1171=EDGE_LOOP('',(#1172,#1173)) ;
#1175=EDGE_LOOP('',(#1176,#1177)) ;
#1190=EDGE_LOOP('',(#1191,#1192,#1193,#1194,#1195,#1196)) ;
#1198=EDGE_LOOP('',(#1199,#1200)) ;
#1208=EDGE_LOOP('',(#1209,#1210,#1211,#1212)) ;
#1275=EDGE_LOOP('',(#1276,#1277,#1278,#1279)) ;
#1292=EDGE_LOOP('',(#1293,#1294,#1295,#1296)) ;
#1304=EDGE_LOOP('',(#1305,#1306)) ;
#1342=EDGE_LOOP('',(#1343,#1344,#1345,#1346)) ;
#1359=EDGE_LOOP('',(#1360,#1361,#1362,#1363)) ;
#1399=EDGE_LOOP('',(#1400,#1401,#1402,#1403)) ;
#1430=EDGE_LOOP('',(#1431,#1432,#1433,#1434)) ;
#1461=EDGE_LOOP('',(#1462,#1463,#1464,#1465)) ;
#1492=EDGE_LOOP('',(#1493,#1494,#1495,#1496)) ;
#1523=EDGE_LOOP('',(#1524,#1525,#1526,#1527)) ;
#1540=EDGE_LOOP('',(#1541,#1542,#1543,#1544,#1545,#1546)) ;
#1548=EDGE_LOOP('',(#1549,#1550)) ;
#1552=EDGE_LOOP('',(#1553,#1554)) ;
#1567=EDGE_LOOP('',(#1568,#1569,#1570,#1571,#1572,#1573)) ;
#1575=EDGE_LOOP('',(#1576,#1577)) ;
#1585=EDGE_LOOP('',(#1586,#1587,#1588,#1589)) ;
#101=FACE_OUTER_BOUND('',#96,.T.) ;
#118=FACE_OUTER_BOUND('',#113,.T.) ;
#158=FACE_OUTER_BOUND('',#153,.T.) ;
#175=FACE_OUTER_BOUND('',#170,.T.) ;
#199=FACE_OUTER_BOUND('',#196,.T.) ;
#221=FACE_OUTER_BOUND('',#216,.T.) ;
#233=FACE_OUTER_BOUND('',#228,.T.) ;
#273=FACE_OUTER_BOUND('',#268,.T.) ;
#304=FACE_OUTER_BOUND('',#299,.T.) ;
#335=FACE_OUTER_BOUND('',#330,.T.) ;
#366=FACE_OUTER_BOUND('',#361,.T.) ;
#397=FACE_OUTER_BOUND('',#392,.T.) ;
#416=FACE_OUTER_BOUND('',#409,.T.) ;
#443=FACE_OUTER_BOUND('',#436,.T.) ;
#459=FACE_OUTER_BOUND('',#454,.T.) ;
#526=FACE_OUTER_BOUND('',#521,.T.) ;
#543=FACE_OUTER_BOUND('',#538,.T.) ;
#553=FACE_OUTER_BOUND('',#550,.T.) ;
#593=FACE_OUTER_BOUND('',#588,.T.) ;
#610=FACE_OUTER_BOUND('',#605,.T.) ;
#650=FACE_OUTER_BOUND('',#645,.T.) ;
#681=FACE_OUTER_BOUND('',#676,.T.) ;
#712=FACE_OUTER_BOUND('',#707,.T.) ;
#743=FACE_OUTER_BOUND('',#738,.T.) ;
#774=FACE_OUTER_BOUND('',#769,.T.) ;
#793=FACE_OUTER_BOUND('',#786,.T.) ;
#820=FACE_OUTER_BOUND('',#813,.T.) ;
#836=FACE_OUTER_BOUND('',#831,.T.) ;
#903=FACE_OUTER_BOUND('',#898,.T.) ;
#920=FACE_OUTER_BOUND('',#915,.T.) ;
#930=FACE_OUTER_BOUND('',#927,.T.) ;
#970=FACE_OUTER_BOUND('',#965,.T.) ;
#987=FACE_OUTER_BOUND('',#982,.T.) ;
#1027=FACE_OUTER_BOUND('',#1022,.T.) ;
#1058=FACE_OUTER_BOUND('',#1053,.T.) ;
#1089=FACE_OUTER_BOUND('',#1084,.T.) ;
#1120=FACE_OUTER_BOUND('',#1115,.T.) ;
#1151=FACE_OUTER_BOUND('',#1146,.T.) ;
#1170=FACE_OUTER_BOUND('',#1163,.T.) ;
#1197=FACE_OUTER_BOUND('',#1190,.T.) ;
#1213=FACE_OUTER_BOUND('',#1208,.T.) ;
#1280=FACE_OUTER_BOUND('',#1275,.T.) ;
#1297=FACE_OUTER_BOUND('',#1292,.T.) ;
#1307=FACE_OUTER_BOUND('',#1304,.T.) ;
#1347=FACE_OUTER_BOUND('',#1342,.T.) ;
#1364=FACE_OUTER_BOUND('',#1359,.T.) ;
#1404=FACE_OUTER_BOUND('',#1399,.T.) ;
#1435=FACE_OUTER_BOUND('',#1430,.T.) ;
#1466=FACE_OUTER_BOUND('',#1461,.T.) ;
#1497=FACE_OUTER_BOUND('',#1492,.T.) ;
#1528=FACE_OUTER_BOUND('',#1523,.T.) ;
#1547=FACE_OUTER_BOUND('',#1540,.T.) ;
#1574=FACE_OUTER_BOUND('',#1567,.T.) ;
#1590=FACE_OUTER_BOUND('',#1585,.T.) ;
#50=UNCERTAINTY_MEASURE_WITH_UNIT(LENGTH_MEASURE(0.005),#46,'distance_accuracy_value','CONFUSED CURVE UNCERTAINTY') ;
#52=UNCERTAINTY_MEASURE_WITH_UNIT(LENGTH_MEASURE(0.005),#46,'distance_accuracy_value','CONFUSED CURVE UNCERTAINTY') ;
#477=UNCERTAINTY_MEASURE_WITH_UNIT(LENGTH_MEASURE(0.005),#46,'distance_accuracy_value','CONFUSED CURVE UNCERTAINTY') ;
#854=UNCERTAINTY_MEASURE_WITH_UNIT(LENGTH_MEASURE(0.005),#46,'distance_accuracy_value','CONFUSED CURVE UNCERTAINTY') ;
#1231=UNCERTAINTY_MEASURE_WITH_UNIT(LENGTH_MEASURE(0.005),#46,'distance_accuracy_value','CONFUSED CURVE UNCERTAINTY') ;
#71=LINE('Line',#68,#70) ;
#87=LINE('Line',#84,#86) ;
#128=LINE('Line',#125,#127) ;
#144=LINE('Line',#141,#143) ;
#252=LINE('Line',#249,#251) ;
#266=LINE('Line',#263,#265) ;
#290=LINE('Line',#287,#289) ;
#314=LINE('Line',#311,#313) ;
#323=LINE('Line',#320,#322) ;
#328=LINE('Line',#325,#327) ;
#359=LINE('Line',#356,#358) ;
#376=LINE('Line',#373,#375) ;
#385=LINE('Line',#382,#384) ;
#390=LINE('Line',#387,#389) ;
#496=LINE('Line',#493,#495) ;
#512=LINE('Line',#509,#511) ;
#563=LINE('Line',#560,#562) ;
#579=LINE('Line',#576,#578) ;
#629=LINE('Line',#626,#628) ;
#643=LINE('Line',#640,#642) ;
#667=LINE('Line',#664,#666) ;
#691=LINE('Line',#688,#690) ;
#698=LINE('Line',#695,#697) ;
#705=LINE('Line',#702,#704) ;
#729=LINE('Line',#726,#728) ;
#753=LINE('Line',#750,#752) ;
#760=LINE('Line',#757,#759) ;
#767=LINE('Line',#764,#766) ;
#873=LINE('Line',#870,#872) ;
#889=LINE('Line',#886,#888) ;
#940=LINE('Line',#937,#939) ;
#956=LINE('Line',#953,#955) ;
#1006=LINE('Line',#1003,#1005) ;
#1020=LINE('Line',#1017,#1019) ;
#1044=LINE('Line',#1041,#1043) ;
#1068=LINE('Line',#1065,#1067) ;
#1077=LINE('Line',#1074,#1076) ;
#1082=LINE('Line',#1079,#1081) ;
#1113=LINE('Line',#1110,#1112) ;
#1130=LINE('Line',#1127,#1129) ;
#1139=LINE('Line',#1136,#1138) ;
#1144=LINE('Line',#1141,#1143) ;
#1250=LINE('Line',#1247,#1249) ;
#1266=LINE('Line',#1263,#1265) ;
#1317=LINE('Line',#1314,#1316) ;
#1333=LINE('Line',#1330,#1332) ;
#1383=LINE('Line',#1380,#1382) ;
#1397=LINE('Line',#1394,#1396) ;
#1421=LINE('Line',#1418,#1420) ;
#1445=LINE('Line',#1442,#1444) ;
#1452=LINE('Line',#1449,#1451) ;
#1459=LINE('Line',#1456,#1458) ;
#1490=LINE('Line',#1487,#1489) ;
#1507=LINE('Line',#1504,#1506) ;
#1514=LINE('Line',#1511,#1513) ;
#1521=LINE('Line',#1518,#1520) ;
#2=MECHANICAL_CONTEXT(' ',#1,'mechanical') ;
#464=NEXT_ASSEMBLY_USAGE_OCCURRENCE('Part1.1','Part1.1','',#17,#58,' ') ;
#841=NEXT_ASSEMBLY_USAGE_OCCURRENCE('2.1','2.1','',#17,#483,' ') ;
#1218=NEXT_ASSEMBLY_USAGE_OCCURRENCE('3.1','3.1','',#17,#860,' ') ;
#1595=NEXT_ASSEMBLY_USAGE_OCCURRENCE('4.1','4.1','',#17,#1237,' ') ;
#27=PERSONAL_ADDRESS(' ',' ',' ',' ',' ',' ',' ',' ',' ',' ',' ',' ',(#25),' ') ;
#181=PLANE('',#180) ;
#310=PLANE('',#309) ;
#372=PLANE('',#371) ;
#403=PLANE('',#402) ;
#430=PLANE('',#429) ;
#549=PLANE('',#548) ;
#687=PLANE('',#686) ;
#749=PLANE('',#748) ;
#780=PLANE('',#779) ;
#807=PLANE('',#806) ;
#926=PLANE('',#925) ;
#1064=PLANE('',#1063) ;
#1126=PLANE('',#1125) ;
#1157=PLANE('',#1156) ;
#1184=PLANE('',#1183) ;
#1303=PLANE('',#1302) ;
#1441=PLANE('',#1440) ;
#1503=PLANE('',#1502) ;
#1534=PLANE('',#1533) ;
#1561=PLANE('',#1560) ;
#48=PLANE_ANGLE_MEASURE_WITH_UNIT(PLANE_ANGLE_MEASURE(0.0174532925199),#47) ;
#7=PRODUCT_CATEGORY('part',$) ;
#14=PRODUCT_CATEGORY('part',$) ;
#9=PRODUCT_CATEGORY_RELATIONSHIP(' ',' ',#7,#8) ;
#16=PRODUCT_CATEGORY_RELATIONSHIP(' ',' ',#14,#15) ;
#6=PRODUCT_DEFINITION_FORMATION_WITH_SPECIFIED_SOURCE('',' ',#5,.NOT_KNOWN.) ;
#57=PRODUCT_DEFINITION_FORMATION_WITH_SPECIFIED_SOURCE('',' ',#56,.NOT_KNOWN.) ;
#482=PRODUCT_DEFINITION_FORMATION_WITH_SPECIFIED_SOURCE('',' ',#481,.NOT_KNOWN.) ;
#859=PRODUCT_DEFINITION_FORMATION_WITH_SPECIFIED_SOURCE('',' ',#858,.NOT_KNOWN.) ;
#1236=PRODUCT_DEFINITION_FORMATION_WITH_SPECIFIED_SOURCE('',' ',#1235,.NOT_KNOWN.) ;
#58=PRODUCT_DEFINITION_WITH_ASSOCIATED_DOCUMENTS('',' ',#57,#3,(#60)) ;
#483=PRODUCT_DEFINITION_WITH_ASSOCIATED_DOCUMENTS('',' ',#482,#3,(#485)) ;
#860=PRODUCT_DEFINITION_WITH_ASSOCIATED_DOCUMENTS('',' ',#859,#3,(#862)) ;
#1237=PRODUCT_DEFINITION_WITH_ASSOCIATED_DOCUMENTS('',' ',#1236,#3,(#1239)) ;
#8=PRODUCT_RELATED_PRODUCT_CATEGORY('detail',$,(#56,#481,#858,#1235)) ;
#15=PRODUCT_RELATED_PRODUCT_CATEGORY('part',$,(#5)) ;
#43=SHAPE_DEFINITION_REPRESENTATION(#45,#44) ;
#55=SHAPE_DEFINITION_REPRESENTATION(#61,#54) ;
#480=SHAPE_DEFINITION_REPRESENTATION(#486,#479) ;
#857=SHAPE_DEFINITION_REPRESENTATION(#863,#856) ;
#1234=SHAPE_DEFINITION_REPRESENTATION(#1240,#1233) ;
#73=VERTEX_POINT('',#72) ;
#75=VERTEX_POINT('',#74) ;
#82=VERTEX_POINT('',#81) ;
#89=VERTEX_POINT('',#88) ;
#130=VERTEX_POINT('',#129) ;
#132=VERTEX_POINT('',#131) ;
#139=VERTEX_POINT('',#138) ;
#146=VERTEX_POINT('',#145) ;
#187=VERTEX_POINT('',#186) ;
#189=VERTEX_POINT('',#188) ;
#245=VERTEX_POINT('',#244) ;
#247=VERTEX_POINT('',#246) ;
#254=VERTEX_POINT('',#253) ;
#261=VERTEX_POINT('',#260) ;
#285=VERTEX_POINT('',#284) ;
#292=VERTEX_POINT('',#291) ;
#316=VERTEX_POINT('',#315) ;
#318=VERTEX_POINT('',#317) ;
#347=VERTEX_POINT('',#346) ;
#354=VERTEX_POINT('',#353) ;
#378=VERTEX_POINT('',#377) ;
#380=VERTEX_POINT('',#379) ;
#498=VERTEX_POINT('',#497) ;
#500=VERTEX_POINT('',#499) ;
#507=VERTEX_POINT('',#506) ;
#514=VERTEX_POINT('',#513) ;
#565=VERTEX_POINT('',#564) ;
#567=VERTEX_POINT('',#566) ;
#574=VERTEX_POINT('',#573) ;
#581=VERTEX_POINT('',#580) ;
#622=VERTEX_POINT('',#621) ;
#624=VERTEX_POINT('',#623) ;
#631=VERTEX_POINT('',#630) ;
#638=VERTEX_POINT('',#637) ;
#662=VERTEX_POINT('',#661) ;
#669=VERTEX_POINT('',#668) ;
#693=VERTEX_POINT('',#692) ;
#700=VERTEX_POINT('',#699) ;
#724=VERTEX_POINT('',#723) ;
#731=VERTEX_POINT('',#730) ;
#755=VERTEX_POINT('',#754) ;
#762=VERTEX_POINT('',#761) ;
#875=VERTEX_POINT('',#874) ;
#877=VERTEX_POINT('',#876) ;
#884=VERTEX_POINT('',#883) ;
#891=VERTEX_POINT('',#890) ;
#942=VERTEX_POINT('',#941) ;
#944=VERTEX_POINT('',#943) ;
#951=VERTEX_POINT('',#950) ;
#958=VERTEX_POINT('',#957) ;
#999=VERTEX_POINT('',#998) ;
#1001=VERTEX_POINT('',#1000) ;
#1008=VERTEX_POINT('',#1007) ;
#1015=VERTEX_POINT('',#1014) ;
#1039=VERTEX_POINT('',#1038) ;
#1046=VERTEX_POINT('',#1045) ;
#1070=VERTEX_POINT('',#1069) ;
#1072=VERTEX_POINT('',#1071) ;
#1101=VERTEX_POINT('',#1100) ;
#1108=VERTEX_POINT('',#1107) ;
#1132=VERTEX_POINT('',#1131) ;
#1134=VERTEX_POINT('',#1133) ;
#1252=VERTEX_POINT('',#1251) ;
#1254=VERTEX_POINT('',#1253) ;
#1261=VERTEX_POINT('',#1260) ;
#1268=VERTEX_POINT('',#1267) ;
#1319=VERTEX_POINT('',#1318) ;
#1321=VERTEX_POINT('',#1320) ;
#1328=VERTEX_POINT('',#1327) ;
#1335=VERTEX_POINT('',#1334) ;
#1376=VERTEX_POINT('',#1375) ;
#1378=VERTEX_POINT('',#1377) ;
#1385=VERTEX_POINT('',#1384) ;
#1392=VERTEX_POINT('',#1391) ;
#1416=VERTEX_POINT('',#1415) ;
#1423=VERTEX_POINT('',#1422) ;
#1447=VERTEX_POINT('',#1446) ;
#1454=VERTEX_POINT('',#1453) ;
#1478=VERTEX_POINT('',#1477) ;
#1485=VERTEX_POINT('',#1484) ;
#1509=VERTEX_POINT('',#1508) ;
#1516=VERTEX_POINT('',#1515) ;
#46=(LENGTH_UNIT()NAMED_UNIT(*)SI_UNIT(.MILLI.,.METRE.)) ;
#47=(NAMED_UNIT(*)PLANE_ANGLE_UNIT()SI_UNIT($,.RADIAN.)) ;
#49=(NAMED_UNIT(*)SI_UNIT($,.STERADIAN.)SOLID_ANGLE_UNIT()) ;
#51=(GEOMETRIC_REPRESENTATION_CONTEXT(3)GLOBAL_UNCERTAINTY_ASSIGNED_CONTEXT((#50))GLOBAL_UNIT_ASSIGNED_CONTEXT((#46,#47,#49))REPRESENTATION_CONTEXT(' ',' ')) ;
#53=(GEOMETRIC_REPRESENTATION_CONTEXT(3)GLOBAL_UNCERTAINTY_ASSIGNED_CONTEXT((#52))GLOBAL_UNIT_ASSIGNED_CONTEXT((#46,#47,#49))REPRESENTATION_CONTEXT(' ',' ')) ;
#478=(GEOMETRIC_REPRESENTATION_CONTEXT(3)GLOBAL_UNCERTAINTY_ASSIGNED_CONTEXT((#477))GLOBAL_UNIT_ASSIGNED_CONTEXT((#46,#47,#49))REPRESENTATION_CONTEXT(' ',' ')) ;
#855=(GEOMETRIC_REPRESENTATION_CONTEXT(3)GLOBAL_UNCERTAINTY_ASSIGNED_CONTEXT((#854))GLOBAL_UNIT_ASSIGNED_CONTEXT((#46,#47,#49))REPRESENTATION_CONTEXT(' ',' ')) ;
#1232=(GEOMETRIC_REPRESENTATION_CONTEXT(3)GLOBAL_UNCERTAINTY_ASSIGNED_CONTEXT((#1231))GLOBAL_UNIT_ASSIGNED_CONTEXT((#46,#47,#49))REPRESENTATION_CONTEXT(' ',' ')) ;
#467=(REPRESENTATION_RELATIONSHIP(' ',' ',#54,#44)REPRESENTATION_RELATIONSHIP_WITH_TRANSFORMATION(#468)SHAPE_REPRESENTATION_RELATIONSHIP()) ;
#844=(REPRESENTATION_RELATIONSHIP(' ',' ',#479,#44)REPRESENTATION_RELATIONSHIP_WITH_TRANSFORMATION(#845)SHAPE_REPRESENTATION_RELATIONSHIP()) ;
#1221=(REPRESENTATION_RELATIONSHIP(' ',' ',#856,#44)REPRESENTATION_RELATIONSHIP_WITH_TRANSFORMATION(#1222)SHAPE_REPRESENTATION_RELATIONSHIP()) ;
#1598=(REPRESENTATION_RELATIONSHIP(' ',' ',#1233,#44)REPRESENTATION_RELATIONSHIP_WITH_TRANSFORMATION(#1599)SHAPE_REPRESENTATION_RELATIONSHIP()) ;
ENDSEC;
END-ISO-10303-21;
