ISO-10303-21;
HEADER;
/* Generated by software containing ST-Developer
 * from STEP Tools, Inc. (www.steptools.com) 
 */
/* OPTION: strings as raw bytes, not using required /X/ escapes */

FILE_DESCRIPTION(
/* description */ ('Unknown'),
/* implementation_level */ '2;1');

FILE_NAME(
/* name */ 'complete assembly',
/* time_stamp */ '2024-09-28T22:39:51+05:00',
/* author */ ('Unknown'),
/* organization */ ('Unknown'),
/* preprocessor_version */ 'ST-DEVELOPER v18.1',
/* originating_system */ 'Solid Edge',
/* authorisation */ 'Unknown');

FILE_SCHEMA (('AUTOMOTIVE_DESIGN {1 0 10303 214 3 1 1}'));
ENDSEC;

DATA;
#10=PROPERTY_DEFINITION_REPRESENTATION(#14,#12);
#11=PROPERTY_DEFINITION_REPRESENTATION(#15,#13);
#12=REPRESENTATION('',(#16),#874);
#13=REPRESENTATION('',(#17),#874);
#14=PROPERTY_DEFINITION('pmi validation property','',#885);
#15=PROPERTY_DEFINITION('pmi validation property','',#885);
#16=VALUE_REPRESENTATION_ITEM('number of annotations',COUNT_MEASURE(0.));
#17=VALUE_REPRESENTATION_ITEM('number of views',COUNT_MEASURE(0.));
#18=CONTEXT_DEPENDENT_SHAPE_REPRESENTATION(#24,#887);
#19=CONTEXT_DEPENDENT_SHAPE_REPRESENTATION(#25,#889);
#20=CONTEXT_DEPENDENT_SHAPE_REPRESENTATION(#26,#891);
#21=NEXT_ASSEMBLY_USAGE_OCCURRENCE('Part1','Part1','Part1',#892,#893,'');
#22=NEXT_ASSEMBLY_USAGE_OCCURRENCE('u shape','u shape','u shape',#892,#894,
'');
#23=NEXT_ASSEMBLY_USAGE_OCCURRENCE('pin','pin','pin',#892,#895,'');
#24=(
REPRESENTATION_RELATIONSHIP(' ',' ',#539,#540)
REPRESENTATION_RELATIONSHIP_WITH_TRANSFORMATION(#27)
SHAPE_REPRESENTATION_RELATIONSHIP()
);
#25=(
REPRESENTATION_RELATIONSHIP(' ',' ',#541,#540)
REPRESENTATION_RELATIONSHIP_WITH_TRANSFORMATION(#28)
SHAPE_REPRESENTATION_RELATIONSHIP()
);
#26=(
REPRESENTATION_RELATIONSHIP(' ',' ',#542,#540)
REPRESENTATION_RELATIONSHIP_WITH_TRANSFORMATION(#29)
SHAPE_REPRESENTATION_RELATIONSHIP()
);
#27=ITEM_DEFINED_TRANSFORMATION(' ',' ',#543,#566);
#28=ITEM_DEFINED_TRANSFORMATION(' ',' ',#543,#584);
#29=ITEM_DEFINED_TRANSFORMATION(' ',' ',#543,#590);
#30=SHAPE_REPRESENTATION_RELATIONSHIP('','',#539,#33);
#31=SHAPE_REPRESENTATION_RELATIONSHIP('','',#541,#34);
#32=SHAPE_REPRESENTATION_RELATIONSHIP('','',#542,#35);
#33=ADVANCED_BREP_SHAPE_REPRESENTATION('',(#532),#875);
#34=ADVANCED_BREP_SHAPE_REPRESENTATION('',(#533),#876);
#35=ADVANCED_BREP_SHAPE_REPRESENTATION('',(#534),#877);
#36=PLANE('',#547);
#37=PLANE('',#551);
#38=PLANE('',#553);
#39=PLANE('',#554);
#40=PLANE('',#559);
#41=PLANE('',#560);
#42=PLANE('',#561);
#43=PLANE('',#562);
#44=PLANE('',#563);
#45=PLANE('',#564);
#46=PLANE('',#567);
#47=PLANE('',#568);
#48=PLANE('',#573);
#49=PLANE('',#574);
#50=PLANE('',#575);
#51=PLANE('',#579);
#52=PLANE('',#581);
#53=PLANE('',#582);
#54=PLANE('',#588);
#55=PLANE('',#589);
#56=LINE('',#739,#103);
#57=LINE('',#743,#104);
#58=LINE('',#745,#105);
#59=LINE('',#747,#106);
#60=LINE('',#749,#107);
#61=LINE('',#755,#108);
#62=LINE('',#759,#109);
#63=LINE('',#761,#110);
#64=LINE('',#763,#111);
#65=LINE('',#765,#112);
#66=LINE('',#767,#113);
#67=LINE('',#769,#114);
#68=LINE('',#773,#115);
#69=LINE('',#775,#116);
#70=LINE('',#777,#117);
#71=LINE('',#783,#118);
#72=LINE('',#785,#119);
#73=LINE('',#787,#120);
#74=LINE('',#789,#121);
#75=LINE('',#791,#122);
#76=LINE('',#793,#123);
#77=LINE('',#795,#124);
#78=LINE('',#797,#125);
#79=LINE('',#799,#126);
#80=LINE('',#801,#127);
#81=LINE('',#803,#128);
#82=LINE('',#804,#129);
#83=LINE('',#810,#130);
#84=LINE('',#813,#131);
#85=LINE('',#815,#132);
#86=LINE('',#817,#133);
#87=LINE('',#821,#134);
#88=LINE('',#823,#135);
#89=LINE('',#825,#136);
#90=LINE('',#831,#137);
#91=LINE('',#833,#138);
#92=LINE('',#835,#139);
#93=LINE('',#837,#140);
#94=LINE('',#839,#141);
#95=LINE('',#841,#142);
#96=LINE('',#843,#143);
#97=LINE('',#845,#144);
#98=LINE('',#847,#145);
#99=LINE('',#849,#146);
#100=LINE('',#855,#147);
#101=LINE('',#859,#148);
#102=LINE('',#860,#149);
#103=VECTOR('',#597,1000.);
#104=VECTOR('',#600,1000.);
#105=VECTOR('',#603,1000.);
#106=VECTOR('',#604,1000.);
#107=VECTOR('',#605,1000.);
#108=VECTOR('',#612,1000.);
#109=VECTOR('',#617,1000.);
#110=VECTOR('',#618,1000.);
#111=VECTOR('',#619,1000.);
#112=VECTOR('',#622,1000.);
#113=VECTOR('',#623,1000.);
#114=VECTOR('',#624,1000.);
#115=VECTOR('',#629,1000.);
#116=VECTOR('',#630,1000.);
#117=VECTOR('',#631,1000.);
#118=VECTOR('',#638,1000.);
#119=VECTOR('',#641,1000.);
#120=VECTOR('',#642,1000.);
#121=VECTOR('',#643,1000.);
#122=VECTOR('',#646,1000.);
#123=VECTOR('',#647,1000.);
#124=VECTOR('',#648,1000.);
#125=VECTOR('',#651,1000.);
#126=VECTOR('',#652,1000.);
#127=VECTOR('',#653,1000.);
#128=VECTOR('',#656,1000.);
#129=VECTOR('',#657,1000.);
#130=VECTOR('',#668,1000.);
#131=VECTOR('',#669,1000.);
#132=VECTOR('',#670,1000.);
#133=VECTOR('',#671,1000.);
#134=VECTOR('',#676,1000.);
#135=VECTOR('',#677,1000.);
#136=VECTOR('',#678,1000.);
#137=VECTOR('',#685,1000.);
#138=VECTOR('',#688,1000.);
#139=VECTOR('',#689,1000.);
#140=VECTOR('',#690,1000.);
#141=VECTOR('',#693,1000.);
#142=VECTOR('',#694,1000.);
#143=VECTOR('',#695,1000.);
#144=VECTOR('',#698,1000.);
#145=VECTOR('',#699,1000.);
#146=VECTOR('',#700,1000.);
#147=VECTOR('',#707,1000.);
#148=VECTOR('',#712,1000.);
#149=VECTOR('',#713,1000.);
#150=ORIENTED_EDGE('',*,*,#276,.F.);
#151=ORIENTED_EDGE('',*,*,#277,.F.);
#152=ORIENTED_EDGE('',*,*,#278,.T.);
#153=ORIENTED_EDGE('',*,*,#279,.T.);
#154=ORIENTED_EDGE('',*,*,#280,.F.);
#155=ORIENTED_EDGE('',*,*,#279,.F.);
#156=ORIENTED_EDGE('',*,*,#281,.T.);
#157=ORIENTED_EDGE('',*,*,#282,.T.);
#158=ORIENTED_EDGE('',*,*,#283,.F.);
#159=ORIENTED_EDGE('',*,*,#282,.F.);
#160=ORIENTED_EDGE('',*,*,#284,.T.);
#161=ORIENTED_EDGE('',*,*,#285,.T.);
#162=ORIENTED_EDGE('',*,*,#286,.T.);
#163=ORIENTED_EDGE('',*,*,#287,.F.);
#164=ORIENTED_EDGE('',*,*,#285,.F.);
#165=ORIENTED_EDGE('',*,*,#288,.T.);
#166=ORIENTED_EDGE('',*,*,#289,.T.);
#167=ORIENTED_EDGE('',*,*,#290,.F.);
#168=ORIENTED_EDGE('',*,*,#289,.F.);
#169=ORIENTED_EDGE('',*,*,#291,.T.);
#170=ORIENTED_EDGE('',*,*,#292,.T.);
#171=ORIENTED_EDGE('',*,*,#293,.T.);
#172=ORIENTED_EDGE('',*,*,#294,.F.);
#173=ORIENTED_EDGE('',*,*,#292,.F.);
#174=ORIENTED_EDGE('',*,*,#295,.T.);
#175=ORIENTED_EDGE('',*,*,#296,.T.);
#176=ORIENTED_EDGE('',*,*,#297,.F.);
#177=ORIENTED_EDGE('',*,*,#296,.F.);
#178=ORIENTED_EDGE('',*,*,#298,.T.);
#179=ORIENTED_EDGE('',*,*,#299,.T.);
#180=ORIENTED_EDGE('',*,*,#300,.F.);
#181=ORIENTED_EDGE('',*,*,#299,.F.);
#182=ORIENTED_EDGE('',*,*,#301,.T.);
#183=ORIENTED_EDGE('',*,*,#302,.T.);
#184=ORIENTED_EDGE('',*,*,#303,.F.);
#185=ORIENTED_EDGE('',*,*,#302,.F.);
#186=ORIENTED_EDGE('',*,*,#304,.T.);
#187=ORIENTED_EDGE('',*,*,#305,.T.);
#188=ORIENTED_EDGE('',*,*,#306,.F.);
#189=ORIENTED_EDGE('',*,*,#305,.F.);
#190=ORIENTED_EDGE('',*,*,#307,.T.);
#191=ORIENTED_EDGE('',*,*,#308,.T.);
#192=ORIENTED_EDGE('',*,*,#309,.F.);
#193=ORIENTED_EDGE('',*,*,#308,.F.);
#194=ORIENTED_EDGE('',*,*,#310,.T.);
#195=ORIENTED_EDGE('',*,*,#277,.T.);
#196=ORIENTED_EDGE('',*,*,#278,.F.);
#197=ORIENTED_EDGE('',*,*,#310,.F.);
#198=ORIENTED_EDGE('',*,*,#307,.F.);
#199=ORIENTED_EDGE('',*,*,#304,.F.);
#200=ORIENTED_EDGE('',*,*,#301,.F.);
#201=ORIENTED_EDGE('',*,*,#298,.F.);
#202=ORIENTED_EDGE('',*,*,#295,.F.);
#203=ORIENTED_EDGE('',*,*,#291,.F.);
#204=ORIENTED_EDGE('',*,*,#288,.F.);
#205=ORIENTED_EDGE('',*,*,#284,.F.);
#206=ORIENTED_EDGE('',*,*,#281,.F.);
#207=ORIENTED_EDGE('',*,*,#276,.T.);
#208=ORIENTED_EDGE('',*,*,#280,.T.);
#209=ORIENTED_EDGE('',*,*,#283,.T.);
#210=ORIENTED_EDGE('',*,*,#287,.T.);
#211=ORIENTED_EDGE('',*,*,#290,.T.);
#212=ORIENTED_EDGE('',*,*,#294,.T.);
#213=ORIENTED_EDGE('',*,*,#297,.T.);
#214=ORIENTED_EDGE('',*,*,#300,.T.);
#215=ORIENTED_EDGE('',*,*,#303,.T.);
#216=ORIENTED_EDGE('',*,*,#306,.T.);
#217=ORIENTED_EDGE('',*,*,#309,.T.);
#218=ORIENTED_EDGE('',*,*,#293,.F.);
#219=ORIENTED_EDGE('',*,*,#286,.F.);
#220=ORIENTED_EDGE('',*,*,#311,.F.);
#221=ORIENTED_EDGE('',*,*,#312,.F.);
#222=ORIENTED_EDGE('',*,*,#313,.T.);
#223=ORIENTED_EDGE('',*,*,#314,.T.);
#224=ORIENTED_EDGE('',*,*,#315,.T.);
#225=ORIENTED_EDGE('',*,*,#316,.F.);
#226=ORIENTED_EDGE('',*,*,#314,.F.);
#227=ORIENTED_EDGE('',*,*,#317,.T.);
#228=ORIENTED_EDGE('',*,*,#318,.T.);
#229=ORIENTED_EDGE('',*,*,#319,.F.);
#230=ORIENTED_EDGE('',*,*,#318,.F.);
#231=ORIENTED_EDGE('',*,*,#320,.T.);
#232=ORIENTED_EDGE('',*,*,#321,.T.);
#233=ORIENTED_EDGE('',*,*,#322,.F.);
#234=ORIENTED_EDGE('',*,*,#321,.F.);
#235=ORIENTED_EDGE('',*,*,#323,.T.);
#236=ORIENTED_EDGE('',*,*,#324,.T.);
#237=ORIENTED_EDGE('',*,*,#325,.F.);
#238=ORIENTED_EDGE('',*,*,#324,.F.);
#239=ORIENTED_EDGE('',*,*,#326,.T.);
#240=ORIENTED_EDGE('',*,*,#327,.T.);
#241=ORIENTED_EDGE('',*,*,#328,.F.);
#242=ORIENTED_EDGE('',*,*,#327,.F.);
#243=ORIENTED_EDGE('',*,*,#329,.T.);
#244=ORIENTED_EDGE('',*,*,#330,.T.);
#245=ORIENTED_EDGE('',*,*,#331,.F.);
#246=ORIENTED_EDGE('',*,*,#330,.F.);
#247=ORIENTED_EDGE('',*,*,#332,.T.);
#248=ORIENTED_EDGE('',*,*,#333,.T.);
#249=ORIENTED_EDGE('',*,*,#334,.T.);
#250=ORIENTED_EDGE('',*,*,#335,.F.);
#251=ORIENTED_EDGE('',*,*,#333,.F.);
#252=ORIENTED_EDGE('',*,*,#336,.T.);
#253=ORIENTED_EDGE('',*,*,#312,.T.);
#254=ORIENTED_EDGE('',*,*,#313,.F.);
#255=ORIENTED_EDGE('',*,*,#336,.F.);
#256=ORIENTED_EDGE('',*,*,#332,.F.);
#257=ORIENTED_EDGE('',*,*,#329,.F.);
#258=ORIENTED_EDGE('',*,*,#326,.F.);
#259=ORIENTED_EDGE('',*,*,#323,.F.);
#260=ORIENTED_EDGE('',*,*,#320,.F.);
#261=ORIENTED_EDGE('',*,*,#317,.F.);
#262=ORIENTED_EDGE('',*,*,#311,.T.);
#263=ORIENTED_EDGE('',*,*,#316,.T.);
#264=ORIENTED_EDGE('',*,*,#319,.T.);
#265=ORIENTED_EDGE('',*,*,#322,.T.);
#266=ORIENTED_EDGE('',*,*,#325,.T.);
#267=ORIENTED_EDGE('',*,*,#328,.T.);
#268=ORIENTED_EDGE('',*,*,#331,.T.);
#269=ORIENTED_EDGE('',*,*,#335,.T.);
#270=ORIENTED_EDGE('',*,*,#334,.F.);
#271=ORIENTED_EDGE('',*,*,#315,.F.);
#272=ORIENTED_EDGE('',*,*,#337,.T.);
#273=ORIENTED_EDGE('',*,*,#338,.F.);
#274=ORIENTED_EDGE('',*,*,#337,.F.);
#275=ORIENTED_EDGE('',*,*,#338,.T.);
#276=EDGE_CURVE('',#339,#340,#383,.T.);
#277=EDGE_CURVE('',#341,#339,#56,.T.);
#278=EDGE_CURVE('',#341,#342,#384,.T.);
#279=EDGE_CURVE('',#342,#340,#57,.T.);
#280=EDGE_CURVE('',#340,#343,#58,.T.);
#281=EDGE_CURVE('',#342,#344,#59,.T.);
#282=EDGE_CURVE('',#344,#343,#60,.T.);
#283=EDGE_CURVE('',#343,#345,#385,.T.);
#284=EDGE_CURVE('',#344,#346,#386,.T.);
#285=EDGE_CURVE('',#346,#345,#61,.T.);
#286=EDGE_CURVE('',#347,#347,#387,.T.);
#287=EDGE_CURVE('',#345,#348,#62,.T.);
#288=EDGE_CURVE('',#346,#349,#63,.T.);
#289=EDGE_CURVE('',#349,#348,#64,.T.);
#290=EDGE_CURVE('',#348,#350,#65,.T.);
#291=EDGE_CURVE('',#349,#351,#66,.T.);
#292=EDGE_CURVE('',#351,#350,#67,.T.);
#293=EDGE_CURVE('',#352,#352,#388,.F.);
#294=EDGE_CURVE('',#350,#353,#68,.T.);
#295=EDGE_CURVE('',#351,#354,#69,.T.);
#296=EDGE_CURVE('',#354,#353,#70,.T.);
#297=EDGE_CURVE('',#353,#355,#389,.T.);
#298=EDGE_CURVE('',#354,#356,#390,.T.);
#299=EDGE_CURVE('',#356,#355,#71,.T.);
#300=EDGE_CURVE('',#355,#357,#72,.T.);
#301=EDGE_CURVE('',#356,#358,#73,.T.);
#302=EDGE_CURVE('',#358,#357,#74,.T.);
#303=EDGE_CURVE('',#357,#359,#75,.T.);
#304=EDGE_CURVE('',#358,#360,#76,.T.);
#305=EDGE_CURVE('',#360,#359,#77,.T.);
#306=EDGE_CURVE('',#359,#361,#78,.T.);
#307=EDGE_CURVE('',#360,#362,#79,.T.);
#308=EDGE_CURVE('',#362,#361,#80,.T.);
#309=EDGE_CURVE('',#361,#339,#81,.T.);
#310=EDGE_CURVE('',#362,#341,#82,.T.);
#311=EDGE_CURVE('',#363,#364,#83,.T.);
#312=EDGE_CURVE('',#365,#363,#84,.T.);
#313=EDGE_CURVE('',#365,#366,#85,.T.);
#314=EDGE_CURVE('',#366,#364,#86,.T.);
#315=EDGE_CURVE('',#367,#367,#391,.T.);
#316=EDGE_CURVE('',#364,#368,#87,.T.);
#317=EDGE_CURVE('',#366,#369,#88,.T.);
#318=EDGE_CURVE('',#369,#368,#89,.T.);
#319=EDGE_CURVE('',#368,#370,#392,.T.);
#320=EDGE_CURVE('',#369,#371,#393,.T.);
#321=EDGE_CURVE('',#371,#370,#90,.T.);
#322=EDGE_CURVE('',#370,#372,#91,.T.);
#323=EDGE_CURVE('',#371,#373,#92,.T.);
#324=EDGE_CURVE('',#373,#372,#93,.T.);
#325=EDGE_CURVE('',#372,#374,#94,.T.);
#326=EDGE_CURVE('',#373,#375,#95,.T.);
#327=EDGE_CURVE('',#375,#374,#96,.T.);
#328=EDGE_CURVE('',#374,#376,#97,.T.);
#329=EDGE_CURVE('',#375,#377,#98,.T.);
#330=EDGE_CURVE('',#377,#376,#99,.T.);
#331=EDGE_CURVE('',#376,#378,#394,.T.);
#332=EDGE_CURVE('',#377,#379,#395,.T.);
#333=EDGE_CURVE('',#379,#378,#100,.T.);
#334=EDGE_CURVE('',#380,#380,#396,.F.);
#335=EDGE_CURVE('',#378,#363,#101,.T.);
#336=EDGE_CURVE('',#379,#365,#102,.T.);
#337=EDGE_CURVE('',#381,#381,#397,.T.);
#338=EDGE_CURVE('',#382,#382,#398,.T.);
#339=VERTEX_POINT('',#737);
#340=VERTEX_POINT('',#738);
#341=VERTEX_POINT('',#740);
#342=VERTEX_POINT('',#742);
#343=VERTEX_POINT('',#746);
#344=VERTEX_POINT('',#748);
#345=VERTEX_POINT('',#752);
#346=VERTEX_POINT('',#754);
#347=VERTEX_POINT('',#758);
#348=VERTEX_POINT('',#760);
#349=VERTEX_POINT('',#762);
#350=VERTEX_POINT('',#766);
#351=VERTEX_POINT('',#768);
#352=VERTEX_POINT('',#772);
#353=VERTEX_POINT('',#774);
#354=VERTEX_POINT('',#776);
#355=VERTEX_POINT('',#780);
#356=VERTEX_POINT('',#782);
#357=VERTEX_POINT('',#786);
#358=VERTEX_POINT('',#788);
#359=VERTEX_POINT('',#792);
#360=VERTEX_POINT('',#794);
#361=VERTEX_POINT('',#798);
#362=VERTEX_POINT('',#800);
#363=VERTEX_POINT('',#811);
#364=VERTEX_POINT('',#812);
#365=VERTEX_POINT('',#814);
#366=VERTEX_POINT('',#816);
#367=VERTEX_POINT('',#820);
#368=VERTEX_POINT('',#822);
#369=VERTEX_POINT('',#824);
#370=VERTEX_POINT('',#828);
#371=VERTEX_POINT('',#830);
#372=VERTEX_POINT('',#834);
#373=VERTEX_POINT('',#836);
#374=VERTEX_POINT('',#840);
#375=VERTEX_POINT('',#842);
#376=VERTEX_POINT('',#846);
#377=VERTEX_POINT('',#848);
#378=VERTEX_POINT('',#852);
#379=VERTEX_POINT('',#854);
#380=VERTEX_POINT('',#858);
#381=VERTEX_POINT('',#867);
#382=VERTEX_POINT('',#869);
#383=CIRCLE('',#545,15.);
#384=CIRCLE('',#546,15.);
#385=CIRCLE('',#549,15.);
#386=CIRCLE('',#550,15.);
#387=CIRCLE('',#552,10.);
#388=CIRCLE('',#555,10.);
#389=CIRCLE('',#557,15.);
#390=CIRCLE('',#558,15.);
#391=CIRCLE('',#569,10.);
#392=CIRCLE('',#571,15.);
#393=CIRCLE('',#572,15.);
#394=CIRCLE('',#577,15.);
#395=CIRCLE('',#578,15.);
#396=CIRCLE('',#580,10.);
#397=CIRCLE('',#586,10.);
#398=CIRCLE('',#587,10.);
#399=EDGE_LOOP('',(#150,#151,#152,#153));
#400=EDGE_LOOP('',(#154,#155,#156,#157));
#401=EDGE_LOOP('',(#158,#159,#160,#161));
#402=EDGE_LOOP('',(#162));
#403=EDGE_LOOP('',(#163,#164,#165,#166));
#404=EDGE_LOOP('',(#167,#168,#169,#170));
#405=EDGE_LOOP('',(#171));
#406=EDGE_LOOP('',(#172,#173,#174,#175));
#407=EDGE_LOOP('',(#176,#177,#178,#179));
#408=EDGE_LOOP('',(#180,#181,#182,#183));
#409=EDGE_LOOP('',(#184,#185,#186,#187));
#410=EDGE_LOOP('',(#188,#189,#190,#191));
#411=EDGE_LOOP('',(#192,#193,#194,#195));
#412=EDGE_LOOP('',(#196,#197,#198,#199,#200,#201,#202,#203,#204,#205,#206));
#413=EDGE_LOOP('',(#207,#208,#209,#210,#211,#212,#213,#214,#215,#216,#217));
#414=EDGE_LOOP('',(#218));
#415=EDGE_LOOP('',(#219));
#416=EDGE_LOOP('',(#220,#221,#222,#223));
#417=EDGE_LOOP('',(#224));
#418=EDGE_LOOP('',(#225,#226,#227,#228));
#419=EDGE_LOOP('',(#229,#230,#231,#232));
#420=EDGE_LOOP('',(#233,#234,#235,#236));
#421=EDGE_LOOP('',(#237,#238,#239,#240));
#422=EDGE_LOOP('',(#241,#242,#243,#244));
#423=EDGE_LOOP('',(#245,#246,#247,#248));
#424=EDGE_LOOP('',(#249));
#425=EDGE_LOOP('',(#250,#251,#252,#253));
#426=EDGE_LOOP('',(#254,#255,#256,#257,#258,#259,#260,#261));
#427=EDGE_LOOP('',(#262,#263,#264,#265,#266,#267,#268,#269));
#428=EDGE_LOOP('',(#270));
#429=EDGE_LOOP('',(#271));
#430=EDGE_LOOP('',(#272));
#431=EDGE_LOOP('',(#273));
#432=EDGE_LOOP('',(#274));
#433=EDGE_LOOP('',(#275));
#434=FACE_BOUND('',#399,.T.);
#435=FACE_BOUND('',#400,.T.);
#436=FACE_BOUND('',#401,.T.);
#437=FACE_BOUND('',#402,.T.);
#438=FACE_BOUND('',#403,.T.);
#439=FACE_BOUND('',#404,.T.);
#440=FACE_BOUND('',#405,.T.);
#441=FACE_BOUND('',#406,.T.);
#442=FACE_BOUND('',#407,.T.);
#443=FACE_BOUND('',#408,.T.);
#444=FACE_BOUND('',#409,.T.);
#445=FACE_BOUND('',#410,.T.);
#446=FACE_BOUND('',#411,.T.);
#447=FACE_BOUND('',#412,.T.);
#448=FACE_BOUND('',#413,.T.);
#449=FACE_BOUND('',#414,.T.);
#450=FACE_BOUND('',#415,.T.);
#451=FACE_BOUND('',#416,.T.);
#452=FACE_BOUND('',#417,.T.);
#453=FACE_BOUND('',#418,.T.);
#454=FACE_BOUND('',#419,.T.);
#455=FACE_BOUND('',#420,.T.);
#456=FACE_BOUND('',#421,.T.);
#457=FACE_BOUND('',#422,.T.);
#458=FACE_BOUND('',#423,.T.);
#459=FACE_BOUND('',#424,.T.);
#460=FACE_BOUND('',#425,.T.);
#461=FACE_BOUND('',#426,.T.);
#462=FACE_BOUND('',#427,.T.);
#463=FACE_BOUND('',#428,.T.);
#464=FACE_BOUND('',#429,.T.);
#465=FACE_BOUND('',#430,.T.);
#466=FACE_BOUND('',#431,.T.);
#467=FACE_BOUND('',#432,.T.);
#468=FACE_BOUND('',#433,.T.);
#469=CYLINDRICAL_SURFACE('',#544,15.);
#470=CYLINDRICAL_SURFACE('',#548,15.);
#471=CYLINDRICAL_SURFACE('',#556,15.);
#472=CYLINDRICAL_SURFACE('',#565,10.);
#473=CYLINDRICAL_SURFACE('',#570,15.);
#474=CYLINDRICAL_SURFACE('',#576,15.);
#475=CYLINDRICAL_SURFACE('',#583,10.);
#476=CYLINDRICAL_SURFACE('',#585,10.);
#477=ADVANCED_FACE('',(#434),#469,.F.);
#478=ADVANCED_FACE('',(#435),#36,.T.);
#479=ADVANCED_FACE('',(#436),#470,.T.);
#480=ADVANCED_FACE('',(#437,#438),#37,.T.);
#481=ADVANCED_FACE('',(#439),#38,.T.);
#482=ADVANCED_FACE('',(#440,#441),#39,.T.);
#483=ADVANCED_FACE('',(#442),#471,.F.);
#484=ADVANCED_FACE('',(#443),#40,.T.);
#485=ADVANCED_FACE('',(#444),#41,.T.);
#486=ADVANCED_FACE('',(#445),#42,.T.);
#487=ADVANCED_FACE('',(#446),#43,.T.);
#488=ADVANCED_FACE('',(#447),#44,.T.);
#489=ADVANCED_FACE('',(#448),#45,.F.);
#490=ADVANCED_FACE('',(#449,#450),#472,.F.);
#491=ADVANCED_FACE('',(#451),#46,.T.);
#492=ADVANCED_FACE('',(#452,#453),#47,.T.);
#493=ADVANCED_FACE('',(#454),#473,.T.);
#494=ADVANCED_FACE('',(#455),#48,.T.);
#495=ADVANCED_FACE('',(#456),#49,.T.);
#496=ADVANCED_FACE('',(#457),#50,.T.);
#497=ADVANCED_FACE('',(#458),#474,.F.);
#498=ADVANCED_FACE('',(#459,#460),#51,.T.);
#499=ADVANCED_FACE('',(#461),#52,.F.);
#500=ADVANCED_FACE('',(#462),#53,.T.);
#501=ADVANCED_FACE('',(#463,#464),#475,.F.);
#502=ADVANCED_FACE('',(#465,#466),#476,.T.);
#503=ADVANCED_FACE('',(#467),#54,.F.);
#504=ADVANCED_FACE('',(#468),#55,.T.);
#505=CLOSED_SHELL('',(#477,#478,#479,#480,#481,#482,#483,#484,#485,#486,
#487,#488,#489,#490));
#506=CLOSED_SHELL('',(#491,#492,#493,#494,#495,#496,#497,#498,#499,#500,
#501));
#507=CLOSED_SHELL('',(#502,#503,#504));
#508=STYLED_ITEM('',(#511),#532);
#509=STYLED_ITEM('',(#512),#533);
#510=STYLED_ITEM('',(#513),#534);
#511=PRESENTATION_STYLE_ASSIGNMENT((#514));
#512=PRESENTATION_STYLE_ASSIGNMENT((#515));
#513=PRESENTATION_STYLE_ASSIGNMENT((#516));
#514=SURFACE_STYLE_USAGE(.BOTH.,#517);
#515=SURFACE_STYLE_USAGE(.BOTH.,#518);
#516=SURFACE_STYLE_USAGE(.BOTH.,#519);
#517=SURFACE_SIDE_STYLE('',(#520));
#518=SURFACE_SIDE_STYLE('',(#521));
#519=SURFACE_SIDE_STYLE('',(#522));
#520=SURFACE_STYLE_FILL_AREA(#523);
#521=SURFACE_STYLE_FILL_AREA(#524);
#522=SURFACE_STYLE_FILL_AREA(#525);
#523=FILL_AREA_STYLE('',(#526));
#524=FILL_AREA_STYLE('',(#527));
#525=FILL_AREA_STYLE('',(#528));
#526=FILL_AREA_STYLE_COLOUR('',#529);
#527=FILL_AREA_STYLE_COLOUR('',#530);
#528=FILL_AREA_STYLE_COLOUR('',#531);
#529=COLOUR_RGB('',0.455458521842957,0.210917040705681,0.699999988079071);
#530=COLOUR_RGB('',0.,0.5,0.);
#531=COLOUR_RGB('',0.800000011920929,0.760330617427826,0.);
#532=MANIFOLD_SOLID_BREP('',#505);
#533=MANIFOLD_SOLID_BREP('',#506);
#534=MANIFOLD_SOLID_BREP('',#507);
#535=SHAPE_DEFINITION_REPRESENTATION(#886,#539);
#536=SHAPE_DEFINITION_REPRESENTATION(#885,#540);
#537=SHAPE_DEFINITION_REPRESENTATION(#888,#541);
#538=SHAPE_DEFINITION_REPRESENTATION(#890,#542);
#539=SHAPE_REPRESENTATION('Part1',(#543),#875);
#540=SHAPE_REPRESENTATION('complete assembly',(#543,#566,#584,#590),#874);
#541=SHAPE_REPRESENTATION('u shape',(#543),#876);
#542=SHAPE_REPRESENTATION('pin',(#543),#877);
#543=AXIS2_PLACEMENT_3D('',#734,#591,#592);
#544=AXIS2_PLACEMENT_3D('',#735,#593,#594);
#545=AXIS2_PLACEMENT_3D('',#736,#595,#596);
#546=AXIS2_PLACEMENT_3D('',#741,#598,#599);
#547=AXIS2_PLACEMENT_3D('',#744,#601,#602);
#548=AXIS2_PLACEMENT_3D('',#750,#606,#607);
#549=AXIS2_PLACEMENT_3D('',#751,#608,#609);
#550=AXIS2_PLACEMENT_3D('',#753,#610,#611);
#551=AXIS2_PLACEMENT_3D('',#756,#613,#614);
#552=AXIS2_PLACEMENT_3D('',#757,#615,#616);
#553=AXIS2_PLACEMENT_3D('',#764,#620,#621);
#554=AXIS2_PLACEMENT_3D('',#770,#625,#626);
#555=AXIS2_PLACEMENT_3D('',#771,#627,#628);
#556=AXIS2_PLACEMENT_3D('',#778,#632,#633);
#557=AXIS2_PLACEMENT_3D('',#779,#634,#635);
#558=AXIS2_PLACEMENT_3D('',#781,#636,#637);
#559=AXIS2_PLACEMENT_3D('',#784,#639,#640);
#560=AXIS2_PLACEMENT_3D('',#790,#644,#645);
#561=AXIS2_PLACEMENT_3D('',#796,#649,#650);
#562=AXIS2_PLACEMENT_3D('',#802,#654,#655);
#563=AXIS2_PLACEMENT_3D('',#805,#658,#659);
#564=AXIS2_PLACEMENT_3D('',#806,#660,#661);
#565=AXIS2_PLACEMENT_3D('',#807,#662,#663);
#566=AXIS2_PLACEMENT_3D('',#808,#664,#665);
#567=AXIS2_PLACEMENT_3D('',#809,#666,#667);
#568=AXIS2_PLACEMENT_3D('',#818,#672,#673);
#569=AXIS2_PLACEMENT_3D('',#819,#674,#675);
#570=AXIS2_PLACEMENT_3D('',#826,#679,#680);
#571=AXIS2_PLACEMENT_3D('',#827,#681,#682);
#572=AXIS2_PLACEMENT_3D('',#829,#683,#684);
#573=AXIS2_PLACEMENT_3D('',#832,#686,#687);
#574=AXIS2_PLACEMENT_3D('',#838,#691,#692);
#575=AXIS2_PLACEMENT_3D('',#844,#696,#697);
#576=AXIS2_PLACEMENT_3D('',#850,#701,#702);
#577=AXIS2_PLACEMENT_3D('',#851,#703,#704);
#578=AXIS2_PLACEMENT_3D('',#853,#705,#706);
#579=AXIS2_PLACEMENT_3D('',#856,#708,#709);
#580=AXIS2_PLACEMENT_3D('',#857,#710,#711);
#581=AXIS2_PLACEMENT_3D('',#861,#714,#715);
#582=AXIS2_PLACEMENT_3D('',#862,#716,#717);
#583=AXIS2_PLACEMENT_3D('',#863,#718,#719);
#584=AXIS2_PLACEMENT_3D('',#864,#720,#721);
#585=AXIS2_PLACEMENT_3D('',#865,#722,#723);
#586=AXIS2_PLACEMENT_3D('',#866,#724,#725);
#587=AXIS2_PLACEMENT_3D('',#868,#726,#727);
#588=AXIS2_PLACEMENT_3D('',#870,#728,#729);
#589=AXIS2_PLACEMENT_3D('',#871,#730,#731);
#590=AXIS2_PLACEMENT_3D('',#872,#732,#733);
#591=DIRECTION('',(0.,0.,1.));
#592=DIRECTION('',(1.,0.,0.));
#593=DIRECTION('',(0.,1.,0.));
#594=DIRECTION('',(0.,0.,1.));
#595=DIRECTION('',(0.,-1.,0.));
#596=DIRECTION('',(-1.,0.,0.));
#597=DIRECTION('',(0.,1.,0.));
#598=DIRECTION('',(0.,-1.,0.));
#599=DIRECTION('',(-1.,0.,0.));
#600=DIRECTION('',(0.,1.,0.));
#601=DIRECTION('',(-1.,0.,0.));
#602=DIRECTION('',(0.,0.,1.));
#603=DIRECTION('',(0.,0.,1.));
#604=DIRECTION('',(0.,0.,1.));
#605=DIRECTION('',(0.,1.,0.));
#606=DIRECTION('',(0.,1.,0.));
#607=DIRECTION('',(0.,0.,1.));
#608=DIRECTION('',(0.,1.,0.));
#609=DIRECTION('',(1.,0.,0.));
#610=DIRECTION('',(0.,1.,0.));
#611=DIRECTION('',(1.,0.,0.));
#612=DIRECTION('',(0.,1.,0.));
#613=DIRECTION('',(0.,0.,1.));
#614=DIRECTION('',(1.,0.,0.));
#615=DIRECTION('',(0.,0.,-1.));
#616=DIRECTION('',(1.,0.,0.));
#617=DIRECTION('',(1.,0.,0.));
#618=DIRECTION('',(1.,0.,0.));
#619=DIRECTION('',(0.,1.,0.));
#620=DIRECTION('',(1.,0.,0.));
#621=DIRECTION('',(0.,0.,-1.));
#622=DIRECTION('',(0.,0.,-1.));
#623=DIRECTION('',(0.,0.,-1.));
#624=DIRECTION('',(0.,1.,0.));
#625=DIRECTION('',(0.,0.,-1.));
#626=DIRECTION('',(-1.,0.,0.));
#627=DIRECTION('',(0.,0.,-1.));
#628=DIRECTION('',(-1.,0.,0.));
#629=DIRECTION('',(-1.,0.,0.));
#630=DIRECTION('',(-1.,0.,0.));
#631=DIRECTION('',(0.,1.,0.));
#632=DIRECTION('',(0.,1.,0.));
#633=DIRECTION('',(0.,0.,1.));
#634=DIRECTION('',(0.,-1.,0.));
#635=DIRECTION('',(1.,0.,0.));
#636=DIRECTION('',(0.,-1.,0.));
#637=DIRECTION('',(1.,0.,0.));
#638=DIRECTION('',(0.,1.,0.));
#639=DIRECTION('',(1.,0.,7.93016446160826E-16));
#640=DIRECTION('',(7.93016446160826E-16,0.,-1.));
#641=DIRECTION('',(7.93016446160826E-16,0.,-1.));
#642=DIRECTION('',(7.93016446160826E-16,0.,-1.));
#643=DIRECTION('',(0.,1.,0.));
#644=DIRECTION('',(0.,0.,-1.));
#645=DIRECTION('',(-1.,0.,0.));
#646=DIRECTION('',(-1.,0.,0.));
#647=DIRECTION('',(-1.,0.,0.));
#648=DIRECTION('',(0.,1.,0.));
#649=DIRECTION('',(-1.,0.,-1.22464679914735E-16));
#650=DIRECTION('',(-1.22464679914735E-16,0.,1.));
#651=DIRECTION('',(-1.22464679914735E-16,0.,1.));
#652=DIRECTION('',(-1.22464679914735E-16,0.,1.));
#653=DIRECTION('',(0.,1.,0.));
#654=DIRECTION('',(0.,0.,1.));
#655=DIRECTION('',(1.,0.,0.));
#656=DIRECTION('',(1.,0.,0.));
#657=DIRECTION('',(1.,0.,0.));
#658=DIRECTION('',(0.,-1.,0.));
#659=DIRECTION('',(0.,0.,-1.));
#660=DIRECTION('',(0.,-1.,0.));
#661=DIRECTION('',(0.,0.,-1.));
#662=DIRECTION('',(0.,0.,1.));
#663=DIRECTION('',(1.,0.,0.));
#664=DIRECTION('',(0.,0.,1.));
#665=DIRECTION('',(1.,0.,0.));
#666=DIRECTION('',(-1.,0.,0.));
#667=DIRECTION('',(0.,0.,1.));
#668=DIRECTION('',(0.,0.,1.));
#669=DIRECTION('',(0.,1.,0.));
#670=DIRECTION('',(0.,0.,1.));
#671=DIRECTION('',(0.,1.,0.));
#672=DIRECTION('',(0.,0.,1.));
#673=DIRECTION('',(1.,0.,0.));
#674=DIRECTION('',(0.,0.,-1.));
#675=DIRECTION('',(1.,0.,0.));
#676=DIRECTION('',(1.,0.,0.));
#677=DIRECTION('',(1.,0.,0.));
#678=DIRECTION('',(0.,1.,0.));
#679=DIRECTION('',(0.,1.,0.));
#680=DIRECTION('',(0.,0.,1.));
#681=DIRECTION('',(0.,1.,0.));
#682=DIRECTION('',(-1.,0.,0.));
#683=DIRECTION('',(0.,1.,0.));
#684=DIRECTION('',(-1.,0.,0.));
#685=DIRECTION('',(0.,1.,0.));
#686=DIRECTION('',(1.,0.,0.));
#687=DIRECTION('',(0.,0.,-1.));
#688=DIRECTION('',(0.,0.,-1.));
#689=DIRECTION('',(0.,0.,-1.));
#690=DIRECTION('',(0.,1.,0.));
#691=DIRECTION('',(0.,0.,-1.));
#692=DIRECTION('',(-1.,0.,0.));
#693=DIRECTION('',(-1.,0.,0.));
#694=DIRECTION('',(-1.,0.,0.));
#695=DIRECTION('',(0.,1.,0.));
#696=DIRECTION('',(-1.,0.,9.25185853854297E-16));
#697=DIRECTION('',(9.25185853854297E-16,0.,1.));
#698=DIRECTION('',(9.25185853854297E-16,0.,1.));
#699=DIRECTION('',(9.25185853854297E-16,0.,1.));
#700=DIRECTION('',(0.,1.,0.));
#701=DIRECTION('',(0.,1.,0.));
#702=DIRECTION('',(0.,0.,1.));
#703=DIRECTION('',(0.,-1.,0.));
#704=DIRECTION('',(-1.,0.,0.));
#705=DIRECTION('',(0.,-1.,0.));
#706=DIRECTION('',(-1.,0.,0.));
#707=DIRECTION('',(0.,1.,0.));
#708=DIRECTION('',(1.06752213906265E-16,0.,-1.));
#709=DIRECTION('',(-1.,0.,-1.06752213906265E-16));
#710=DIRECTION('',(1.06752213906265E-16,0.,-1.));
#711=DIRECTION('',(-1.,0.,-1.06752213906265E-16));
#712=DIRECTION('',(-1.,0.,-1.06752213906265E-16));
#713=DIRECTION('',(-1.,0.,-1.06752213906265E-16));
#714=DIRECTION('',(0.,1.,0.));
#715=DIRECTION('',(0.,0.,1.));
#716=DIRECTION('',(0.,1.,0.));
#717=DIRECTION('',(0.,0.,1.));
#718=DIRECTION('',(0.,0.,1.));
#719=DIRECTION('',(1.,0.,0.));
#720=DIRECTION('',(-4.73478789478884E-17,-5.4279995653393E-17,1.));
#721=DIRECTION('',(1.,-2.77555756156289E-17,4.73478789478884E-17));
#722=DIRECTION('',(0.,1.,0.));
#723=DIRECTION('',(0.,0.,1.));
#724=DIRECTION('',(0.,1.,0.));
#725=DIRECTION('',(1.,0.,0.));
#726=DIRECTION('',(0.,1.,0.));
#727=DIRECTION('',(1.,0.,0.));
#728=DIRECTION('',(0.,1.,0.));
#729=DIRECTION('',(0.,0.,1.));
#730=DIRECTION('',(0.,1.,0.));
#731=DIRECTION('',(0.,0.,1.));
#732=DIRECTION('',(1.66533453693774E-16,1.,1.55639377976832E-16));
#733=DIRECTION('',(1.,-1.66533453693774E-16,3.32400051069391E-16));
#734=CARTESIAN_POINT('',(0.,0.,0.));
#735=CARTESIAN_POINT('',(125.,-25.,30.));
#736=CARTESIAN_POINT('',(125.,25.,30.));
#737=CARTESIAN_POINT('',(125.,25.,15.));
#738=CARTESIAN_POINT('',(140.,25.,30.));
#739=CARTESIAN_POINT('',(125.,-25.,15.));
#740=CARTESIAN_POINT('',(125.,-25.,15.));
#741=CARTESIAN_POINT('',(125.,-25.,30.));
#742=CARTESIAN_POINT('',(140.,-25.,30.));
#743=CARTESIAN_POINT('',(140.,-25.,30.));
#744=CARTESIAN_POINT('',(140.,-25.,30.));
#745=CARTESIAN_POINT('',(140.,25.,30.));
#746=CARTESIAN_POINT('',(140.,25.,50.));
#747=CARTESIAN_POINT('',(140.,-25.,30.));
#748=CARTESIAN_POINT('',(140.,-25.,50.));
#749=CARTESIAN_POINT('',(140.,-25.,50.));
#750=CARTESIAN_POINT('',(155.,-25.,50.));
#751=CARTESIAN_POINT('',(155.,25.,50.));
#752=CARTESIAN_POINT('',(155.,25.,65.));
#753=CARTESIAN_POINT('',(155.,-25.,50.));
#754=CARTESIAN_POINT('',(155.,-25.,65.));
#755=CARTESIAN_POINT('',(155.,-25.,65.));
#756=CARTESIAN_POINT('',(155.,-25.,65.));
#757=CARTESIAN_POINT('',(210.,0.,65.));
#758=CARTESIAN_POINT('',(220.,0.,65.));
#759=CARTESIAN_POINT('',(155.,25.,65.));
#760=CARTESIAN_POINT('',(260.,25.,65.));
#761=CARTESIAN_POINT('',(155.,-25.,65.));
#762=CARTESIAN_POINT('',(260.,-25.,65.));
#763=CARTESIAN_POINT('',(260.,-25.,65.));
#764=CARTESIAN_POINT('',(260.,-25.,65.));
#765=CARTESIAN_POINT('',(260.,25.,65.));
#766=CARTESIAN_POINT('',(260.,25.,50.));
#767=CARTESIAN_POINT('',(260.,-25.,65.));
#768=CARTESIAN_POINT('',(260.,-25.,50.));
#769=CARTESIAN_POINT('',(260.,-25.,50.));
#770=CARTESIAN_POINT('',(260.,-25.,50.));
#771=CARTESIAN_POINT('',(210.,0.,50.));
#772=CARTESIAN_POINT('',(200.,0.,50.));
#773=CARTESIAN_POINT('',(260.,25.,50.));
#774=CARTESIAN_POINT('',(175.,25.,50.));
#775=CARTESIAN_POINT('',(260.,-25.,50.));
#776=CARTESIAN_POINT('',(175.,-25.,50.));
#777=CARTESIAN_POINT('',(175.,-25.,50.));
#778=CARTESIAN_POINT('',(175.,-25.,35.));
#779=CARTESIAN_POINT('',(175.,25.,35.));
#780=CARTESIAN_POINT('',(160.,25.,35.));
#781=CARTESIAN_POINT('',(175.,-25.,35.));
#782=CARTESIAN_POINT('',(160.,-25.,35.));
#783=CARTESIAN_POINT('',(160.,-25.,35.));
#784=CARTESIAN_POINT('',(160.,-25.,0.));
#785=CARTESIAN_POINT('',(160.,25.,0.));
#786=CARTESIAN_POINT('',(160.,25.,0.));
#787=CARTESIAN_POINT('',(160.,-25.,0.));
#788=CARTESIAN_POINT('',(160.,-25.,0.));
#789=CARTESIAN_POINT('',(160.,-25.,0.));
#790=CARTESIAN_POINT('',(0.,-25.,0.));
#791=CARTESIAN_POINT('',(0.,25.,0.));
#792=CARTESIAN_POINT('',(0.,25.,0.));
#793=CARTESIAN_POINT('',(0.,-25.,0.));
#794=CARTESIAN_POINT('',(0.,-25.,0.));
#795=CARTESIAN_POINT('',(0.,-25.,0.));
#796=CARTESIAN_POINT('',(0.,-25.,0.));
#797=CARTESIAN_POINT('',(0.,25.,0.));
#798=CARTESIAN_POINT('',(-1.83697019872103E-15,25.,15.));
#799=CARTESIAN_POINT('',(0.,-25.,0.));
#800=CARTESIAN_POINT('',(-1.83697019872103E-15,-25.,15.));
#801=CARTESIAN_POINT('',(-1.83697019872103E-15,-25.,15.));
#802=CARTESIAN_POINT('',(-1.83697019872103E-15,-25.,15.));
#803=CARTESIAN_POINT('',(-1.83697019872103E-15,25.,15.));
#804=CARTESIAN_POINT('',(-1.83697019872103E-15,-25.,15.));
#805=CARTESIAN_POINT('',(125.,-25.,30.));
#806=CARTESIAN_POINT('',(125.,25.,30.));
#807=CARTESIAN_POINT('',(210.,0.,-215.));
#808=CARTESIAN_POINT('',(0.,0.,0.));
#809=CARTESIAN_POINT('',(0.,-25.,-20.));
#810=CARTESIAN_POINT('',(0.,25.,-20.));
#811=CARTESIAN_POINT('',(0.,25.,-20.));
#812=CARTESIAN_POINT('',(0.,25.,0.));
#813=CARTESIAN_POINT('',(0.,-25.,-20.));
#814=CARTESIAN_POINT('',(0.,-25.,-20.));
#815=CARTESIAN_POINT('',(0.,-25.,-20.));
#816=CARTESIAN_POINT('',(0.,-25.,0.));
#817=CARTESIAN_POINT('',(0.,-25.,0.));
#818=CARTESIAN_POINT('',(0.,-25.,0.));
#819=CARTESIAN_POINT('',(25.,0.,0.));
#820=CARTESIAN_POINT('',(35.,0.,0.));
#821=CARTESIAN_POINT('',(0.,25.,0.));
#822=CARTESIAN_POINT('',(85.,25.,0.));
#823=CARTESIAN_POINT('',(0.,-25.,0.));
#824=CARTESIAN_POINT('',(85.,-25.,0.));
#825=CARTESIAN_POINT('',(85.,-25.,0.));
#826=CARTESIAN_POINT('',(85.,-25.,-15.));
#827=CARTESIAN_POINT('',(85.,25.,-15.));
#828=CARTESIAN_POINT('',(100.,25.,-15.));
#829=CARTESIAN_POINT('',(85.,-25.,-15.));
#830=CARTESIAN_POINT('',(100.,-25.,-15.));
#831=CARTESIAN_POINT('',(100.,-25.,-15.));
#832=CARTESIAN_POINT('',(100.,-25.,-15.));
#833=CARTESIAN_POINT('',(100.,25.,-15.));
#834=CARTESIAN_POINT('',(100.,25.,-50.));
#835=CARTESIAN_POINT('',(100.,-25.,-15.));
#836=CARTESIAN_POINT('',(100.,-25.,-50.));
#837=CARTESIAN_POINT('',(100.,-25.,-50.));
#838=CARTESIAN_POINT('',(100.,-25.,-50.));
#839=CARTESIAN_POINT('',(100.,25.,-50.));
#840=CARTESIAN_POINT('',(80.,25.,-50.));
#841=CARTESIAN_POINT('',(100.,-25.,-50.));
#842=CARTESIAN_POINT('',(80.,-25.,-50.));
#843=CARTESIAN_POINT('',(80.,-25.,-50.));
#844=CARTESIAN_POINT('',(80.,-25.,-50.));
#845=CARTESIAN_POINT('',(80.,25.,-50.));
#846=CARTESIAN_POINT('',(80.,25.,-35.));
#847=CARTESIAN_POINT('',(80.,-25.,-50.));
#848=CARTESIAN_POINT('',(80.,-25.,-35.));
#849=CARTESIAN_POINT('',(80.,-25.,-35.));
#850=CARTESIAN_POINT('',(65.,-25.,-35.));
#851=CARTESIAN_POINT('',(65.,25.,-35.));
#852=CARTESIAN_POINT('',(65.,25.,-20.));
#853=CARTESIAN_POINT('',(65.,-25.,-35.));
#854=CARTESIAN_POINT('',(65.,-25.,-20.));
#855=CARTESIAN_POINT('',(65.,-25.,-20.));
#856=CARTESIAN_POINT('',(65.,-25.,-20.));
#857=CARTESIAN_POINT('',(25.,0.,-20.));
#858=CARTESIAN_POINT('',(15.,0.,-20.));
#859=CARTESIAN_POINT('',(65.,25.,-20.));
#860=CARTESIAN_POINT('',(65.,-25.,-20.));
#861=CARTESIAN_POINT('',(85.,-25.,-15.));
#862=CARTESIAN_POINT('',(85.,25.,-15.));
#863=CARTESIAN_POINT('',(25.,0.,-120.));
#864=CARTESIAN_POINT('',(185.,-6.93889390390723E-15,50.));
#865=CARTESIAN_POINT('',(0.,-40.,0.));
#866=CARTESIAN_POINT('',(0.,-40.,0.));
#867=CARTESIAN_POINT('',(10.,-40.,0.));
#868=CARTESIAN_POINT('',(0.,40.,0.));
#869=CARTESIAN_POINT('',(10.,40.,0.));
#870=CARTESIAN_POINT('',(0.,-40.,0.));
#871=CARTESIAN_POINT('',(0.,40.,0.));
#872=CARTESIAN_POINT('',(210.,2.08166817117217E-14,40.));
#873=MECHANICAL_DESIGN_GEOMETRIC_PRESENTATION_REPRESENTATION('',(#508,#509,
#510),#874);
#874=(
GEOMETRIC_REPRESENTATION_CONTEXT(3)
GLOBAL_UNCERTAINTY_ASSIGNED_CONTEXT((#878))
GLOBAL_UNIT_ASSIGNED_CONTEXT((#884,#883,#882))
REPRESENTATION_CONTEXT('complete assembly','TOP_LEVEL_ASSEMBLY_PART')
);
#875=(
GEOMETRIC_REPRESENTATION_CONTEXT(3)
GLOBAL_UNCERTAINTY_ASSIGNED_CONTEXT((#879))
GLOBAL_UNIT_ASSIGNED_CONTEXT((#884,#883,#882))
REPRESENTATION_CONTEXT('Part1','COMPONENT_PART')
);
#876=(
GEOMETRIC_REPRESENTATION_CONTEXT(3)
GLOBAL_UNCERTAINTY_ASSIGNED_CONTEXT((#880))
GLOBAL_UNIT_ASSIGNED_CONTEXT((#884,#883,#882))
REPRESENTATION_CONTEXT('u shape','COMPONENT_PART')
);
#877=(
GEOMETRIC_REPRESENTATION_CONTEXT(3)
GLOBAL_UNCERTAINTY_ASSIGNED_CONTEXT((#881))
GLOBAL_UNIT_ASSIGNED_CONTEXT((#884,#883,#882))
REPRESENTATION_CONTEXT('pin','COMPONENT_PART')
);
#878=UNCERTAINTY_MEASURE_WITH_UNIT(LENGTH_MEASURE(0.005),#884,
'DISTANCE_ACCURACY_VALUE','Maximum Tolerance applied to model');
#879=UNCERTAINTY_MEASURE_WITH_UNIT(LENGTH_MEASURE(0.005),#884,
'DISTANCE_ACCURACY_VALUE','Maximum Tolerance applied to model');
#880=UNCERTAINTY_MEASURE_WITH_UNIT(LENGTH_MEASURE(0.005),#884,
'DISTANCE_ACCURACY_VALUE','Maximum Tolerance applied to model');
#881=UNCERTAINTY_MEASURE_WITH_UNIT(LENGTH_MEASURE(0.005),#884,
'DISTANCE_ACCURACY_VALUE','Maximum Tolerance applied to model');
#882=(
NAMED_UNIT(*)
SI_UNIT($,.STERADIAN.)
SOLID_ANGLE_UNIT()
);
#883=(
NAMED_UNIT(*)
PLANE_ANGLE_UNIT()
SI_UNIT($,.RADIAN.)
);
#884=(
LENGTH_UNIT()
NAMED_UNIT(*)
SI_UNIT(.MILLI.,.METRE.)
);
#885=PRODUCT_DEFINITION_SHAPE('','',#892);
#886=PRODUCT_DEFINITION_SHAPE('','',#893);
#887=PRODUCT_DEFINITION_SHAPE(' ','NAUO PRDDFN',#21);
#888=PRODUCT_DEFINITION_SHAPE('','',#894);
#889=PRODUCT_DEFINITION_SHAPE(' ','NAUO PRDDFN',#22);
#890=PRODUCT_DEFINITION_SHAPE('','',#895);
#891=PRODUCT_DEFINITION_SHAPE(' ','NAUO PRDDFN',#23);
#892=PRODUCT_DEFINITION('','',#900,#896);
#893=PRODUCT_DEFINITION('','',#901,#897);
#894=PRODUCT_DEFINITION('','',#902,#898);
#895=PRODUCT_DEFINITION('','',#903,#899);
#896=PRODUCT_DEFINITION_CONTEXT('',#921,'design');
#897=PRODUCT_DEFINITION_CONTEXT('',#921,'design');
#898=PRODUCT_DEFINITION_CONTEXT('',#921,'design');
#899=PRODUCT_DEFINITION_CONTEXT('',#921,'design');
#900=PRODUCT_DEFINITION_FORMATION_WITH_SPECIFIED_SOURCE('','',#908,
 .NOT_KNOWN.);
#901=PRODUCT_DEFINITION_FORMATION_WITH_SPECIFIED_SOURCE('','',#909,
 .NOT_KNOWN.);
#902=PRODUCT_DEFINITION_FORMATION_WITH_SPECIFIED_SOURCE('','',#910,
 .NOT_KNOWN.);
#903=PRODUCT_DEFINITION_FORMATION_WITH_SPECIFIED_SOURCE('','',#911,
 .NOT_KNOWN.);
#904=PRODUCT_RELATED_PRODUCT_CATEGORY('','',(#908));
#905=PRODUCT_RELATED_PRODUCT_CATEGORY('','',(#909));
#906=PRODUCT_RELATED_PRODUCT_CATEGORY('','',(#910));
#907=PRODUCT_RELATED_PRODUCT_CATEGORY('','',(#911));
#908=PRODUCT('complete assembly','complete assembly',
'complete assembly',(#916));
#909=PRODUCT('Part1','Part1','Part1',(#917));
#910=PRODUCT('u shape','u shape','u shape',(#918));
#911=PRODUCT('pin','pin','pin',(#919));
#912=PRODUCT_CATEGORY('','');
#913=PRODUCT_CATEGORY('','');
#914=PRODUCT_CATEGORY('','');
#915=PRODUCT_CATEGORY('','');
#916=PRODUCT_CONTEXT('',#921,'mechanical');
#917=PRODUCT_CONTEXT('',#921,'mechanical');
#918=PRODUCT_CONTEXT('',#921,'mechanical');
#919=PRODUCT_CONTEXT('',#921,'mechanical');
#920=APPLICATION_PROTOCOL_DEFINITION('international standard',
'automotive_design',2010,#921);
#921=APPLICATION_CONTEXT(
'core data for automotive mechanical design processes');
ENDSEC;
END-ISO-10303-21;
